<svg xmlns="http://www.w3.org/2000/svg" width="54" height="54" viewBox="0 0 54 54" fill="none"><rect x="1.5" y="47.5288" width="51.3052" height="5.27662" rx="1.59221" fill="#F0EEE8" stroke="black"></rect><path d="M53.3086 1.00049L1.0034 1.00049" stroke="black" stroke-linecap="round"></path><path d="M20.8033 29.5537H19.0207V23.8545H16.8114V22.5113C17.121 22.5197 17.4181 22.4988 17.7027 22.4486C17.9956 22.39 18.255 22.2937 18.481 22.1598C18.7153 22.0176 18.912 21.8335 19.071 21.6075C19.23 21.3815 19.3346 21.1012 19.3848 20.7664H20.8033V29.5537ZM23.3223 24.1433C23.3056 23.6411 23.3641 23.1767 23.498 22.7499C23.6319 22.3147 23.8328 21.9381 24.1006 21.6201C24.3684 21.2937 24.7032 21.0426 25.1049 20.8669C25.5149 20.6827 25.9836 20.5907 26.5108 20.5907C26.9125 20.5907 27.2933 20.6535 27.6532 20.779C28.0214 20.9045 28.3436 21.0845 28.6198 21.3188C28.8959 21.5531 29.1135 21.8418 29.2725 22.185C29.4399 22.5281 29.5236 22.913 29.5236 23.3399C29.5236 23.7834 29.4525 24.1642 29.3102 24.4822C29.1679 24.8002 28.9796 25.0848 28.7453 25.3358C28.511 25.5785 28.2432 25.8003 27.9419 26.0011C27.649 26.202 27.3519 26.4028 27.0506 26.6037C26.7493 26.7962 26.4564 27.0054 26.1719 27.2314C25.8873 27.4573 25.6363 27.7209 25.4187 28.0222H29.5738V29.5537H23.1214C23.1214 29.0432 23.1926 28.5997 23.3348 28.2231C23.4855 27.8465 23.6863 27.5117 23.9374 27.2188C24.1885 26.9175 24.4814 26.6414 24.8161 26.3903C25.1593 26.1392 25.5191 25.884 25.8957 25.6245C26.0882 25.4906 26.2932 25.3567 26.5108 25.2228C26.7284 25.0806 26.9251 24.9257 27.1008 24.7584C27.2849 24.591 27.4356 24.4027 27.5527 24.1935C27.6783 23.9843 27.741 23.7457 27.741 23.4779C27.741 23.0511 27.6155 22.7206 27.3644 22.4862C27.1217 22.2435 26.8079 22.1222 26.4229 22.1222C26.1635 22.1222 25.9417 22.185 25.7576 22.3105C25.5819 22.4277 25.4396 22.5867 25.3308 22.7875C25.222 22.98 25.1425 23.1976 25.0923 23.4403C25.0505 23.6746 25.0295 23.9089 25.0295 24.1433H23.3223ZM34.3941 24.2562H33.327V23.0637H34.3941V22.5616C34.3941 21.9841 34.574 21.5113 34.9339 21.143C35.2937 20.7748 35.8377 20.5907 36.5658 20.5907C36.7248 20.5907 36.8838 20.5991 37.0428 20.6158C37.2018 20.6242 37.3566 20.6325 37.5073 20.6409V21.9715C37.298 21.9464 37.0805 21.9339 36.8545 21.9339C36.6118 21.9339 36.4361 21.9925 36.3273 22.1096C36.2268 22.2184 36.1766 22.4067 36.1766 22.6745V23.0637H37.4068V24.2562H36.1766V29.5537H34.3941V24.2562ZM40.4448 23.0637H41.7504V24.2562H40.4448V27.4699C40.4448 27.7711 40.495 27.972 40.5955 28.0724C40.6959 28.1729 40.8967 28.2231 41.198 28.2231C41.2984 28.2231 41.3947 28.2189 41.4867 28.2105C41.5788 28.2021 41.6667 28.1896 41.7504 28.1729V29.5537C41.5997 29.5788 41.4323 29.5956 41.2482 29.6039C41.0641 29.6123 40.8842 29.6165 40.7084 29.6165C40.4323 29.6165 40.1687 29.5956 39.9176 29.5537C39.6749 29.5202 39.4573 29.4491 39.2648 29.3403C39.0807 29.2315 38.9343 29.0767 38.8255 28.8758C38.7167 28.675 38.6623 28.4114 38.6623 28.085V24.2562H37.5827V23.0637H38.6623V21.1179H40.4448V23.0637ZM42.6738 27.6205H44.6447V29.5537H42.6738V27.6205Z" fill="black"></path><path d="M5.35356 5.64645C5.15829 5.45118 4.84171 5.45118 4.64645 5.64645L1.46447 8.82843C1.26921 9.02369 1.26921 9.34027 1.46447 9.53553C1.65973 9.7308 1.97631 9.7308 2.17157 9.53553L5 6.70711L7.82843 9.53553C8.02369 9.7308 8.34027 9.7308 8.53554 9.53553C8.7308 9.34027 8.7308 9.02369 8.53554 8.82843L5.35356 5.64645ZM5.5 43L5.5 6L4.5 6L4.5 43L5.5 43Z" fill="black"></path></svg>