<svg xmlns="http://www.w3.org/2000/svg" width="52" height="53" viewBox="0 0 52 53" fill="none"><g id="Group 278"><g id="Tuxedo"><path id="Vector" d="M17.3921 1.6863C17.772 1.25028 18.3219 1 18.9002 1H33.0932C33.6286 1 34.1416 1.21465 34.5175 1.59591L37.1921 4.30896C37.3365 4.45544 37.5026 4.57877 37.6847 4.6746L49.7517 11.0276C50.4087 11.3735 50.82 12.0548 50.82 12.7973V50.08C50.82 51.1846 49.9246 52.08 48.82 52.08H3C1.89543 52.08 1 51.1846 1 50.08V12.7696C1 12.005 1.4359 11.3073 2.12305 10.9721L14.2454 5.05789C14.486 4.94049 14.7006 4.77598 14.8765 4.5741L17.3921 1.6863Z" fill="#F0EEE8" stroke="black" stroke-miterlimit="10"></path><path id="Vector_2" d="M17.9593 1.03432C17.9783 1.01251 18.0058 1 18.0347 1H33.8874C33.9141 1 33.9398 1.01073 33.9586 1.0298L37.3996 4.5202C37.406 4.5267 37.4132 4.5323 37.4212 4.53682L43.9802 8.28485C44.025 8.31044 44.043 8.36591 44.0217 8.41291L39.5398 18.3145C39.5269 18.3431 39.5281 18.3762 39.5433 18.4038L43.7003 25.9773C43.7181 26.0097 43.7165 26.0493 43.6963 26.0803L26.7217 51.9741C26.6825 52.0339 26.5951 52.0344 26.5552 51.9751L9.06822 25.9979C9.04479 25.9631 9.04558 25.9174 9.07019 25.8834L13.5161 19.7457C13.5367 19.7173 13.5409 19.6803 13.5273 19.6481L8.7339 8.31203C8.71413 8.26527 8.73253 8.21112 8.77669 8.18608L14.5944 4.88843C14.6042 4.88285 14.613 4.87564 14.6204 4.86712L17.9593 1.03432Z" fill="white" stroke="black" stroke-miterlimit="10"></path><path id="Vector_3" d="M8.78217 8.18616C8.73554 8.2109 8.71616 8.26761 8.73791 8.31571L13.2186 18.2246C13.2316 18.2533 13.2303 18.2864 13.2152 18.314L9.05814 25.8875C9.04034 25.9199 9.04189 25.9595 9.06217 25.9904L25.807 51.5338C25.8683 51.6275 26.0137 51.5649 25.9879 51.4559L14.9891 5.03608C14.974 4.97237 14.9027 4.94011 14.8449 4.97079L8.78217 8.18616Z" fill="white" stroke="black" stroke-miterlimit="10"></path><path id="Vector_4" d="M43.9776 8.28576C44.0243 8.31049 44.0437 8.36724 44.0219 8.41534L39.5412 18.3142C39.5283 18.3429 39.5295 18.376 39.5447 18.4036L43.7017 25.9771C43.7195 26.0095 43.718 26.0491 43.6977 26.08L26.9529 51.6234C26.8915 51.717 26.7462 51.6544 26.772 51.5455L37.7708 5.13568C37.7859 5.07197 37.8571 5.03972 37.9149 5.07039L43.9776 8.28576Z" fill="white" stroke="black" stroke-miterlimit="10"></path><path id="Vector_5" d="M47.8394 39.6802H38.3594C37.8071 39.6802 37.3594 40.1279 37.3594 40.6802V41.4102C37.3594 41.9625 37.8071 42.4102 38.3594 42.4102H47.8394C48.3917 42.4102 48.8394 41.9625 48.8394 41.4102V40.6802C48.8394 40.1279 48.3917 39.6802 47.8394 39.6802Z" fill="white" stroke="black" stroke-miterlimit="10"></path><path id="Vector_6" d="M19.4134 1C18.8946 1 18.6203 1.61392 18.9665 2.00035L25.7904 9.61774C26.0299 9.88515 26.4491 9.88374 26.6869 9.61473L33.4189 1.99733C33.7612 1.61001 33.4862 1 32.9693 1H19.4134Z" fill="white" stroke="black" stroke-width="1.05" stroke-miterlimit="10"></path><g id="Group"><path id="Vector_7" d="M25.1016 27.4497C25.1016 26.8097 25.5716 26.3297 26.2016 26.3097C26.8216 26.2997 27.3316 26.7897 27.3416 27.4097C27.3416 28.0297 26.8516 28.5397 26.2416 28.5497C25.6216 28.5497 25.1216 28.0697 25.1116 27.4497H25.1016Z" fill="black"></path><path id="Vector_8" d="M25.1017 37.6797C25.1017 37.0597 25.6117 36.5697 26.2317 36.5797C26.8417 36.5797 27.3417 37.1097 27.3317 37.7197C27.3217 38.3597 26.8317 38.8197 26.1917 38.8097C25.5517 38.8097 25.0917 38.3197 25.1017 37.6797Z" fill="black"></path><path id="Vector_9" d="M27.3316 22.2999C27.3316 22.9199 26.8416 23.4199 26.2216 23.4299C25.6116 23.4299 25.1016 22.9299 25.1016 22.3099C25.1016 21.6899 25.5716 21.1899 26.2116 21.1899C26.8416 21.1899 27.3316 21.6699 27.3316 22.2999Z" fill="black"></path><path id="Vector_10" d="M27.3316 32.5499C27.3316 33.1799 26.8516 33.6799 26.2316 33.6899C25.6116 33.6999 25.1116 33.2099 25.1016 32.5899C25.1016 31.9599 25.5716 31.4599 26.1916 31.4499C26.8016 31.4399 27.3216 31.9399 27.3316 32.5499Z" fill="black"></path></g><path id="Vector_11" d="M27.8516 9.7998H23.8016C23.1388 9.7998 22.6016 10.3371 22.6016 10.9998V14.5598C22.6016 15.2225 23.1388 15.7598 23.8016 15.7598H27.8516C28.5143 15.7598 29.0516 15.2225 29.0516 14.5598V10.9998C29.0516 10.3371 28.5143 9.7998 27.8516 9.7998Z" fill="white" stroke="black" stroke-miterlimit="10"></path><path id="Vector_12" d="M35.7 15.3397C35.7 16.0757 35.0435 16.6383 34.3162 16.5255L30.2662 15.8976C29.6814 15.807 29.25 15.3035 29.25 14.7118V10.8247C29.25 10.2302 29.6853 9.72529 30.2733 9.63777L34.3233 9.03498C35.0484 8.92705 35.7 9.48881 35.7 10.2219V15.3397Z" fill="white" stroke="black" stroke-miterlimit="10"></path><path id="Vector_13" d="M15.9102 10.2283C15.9102 9.49302 16.5654 8.93065 17.2922 9.04221L21.3422 9.66383C21.9278 9.75372 22.3602 10.2575 22.3602 10.8499V14.7455C22.3602 15.34 21.9249 15.8449 21.3368 15.9324L17.2868 16.5352C16.5617 16.6431 15.9102 16.0813 15.9102 15.3483V10.2283Z" fill="white" stroke="black" stroke-miterlimit="10"></path></g></g></svg>