<svg xmlns="http://www.w3.org/2000/svg" width="59" height="59" viewBox="0 0 59 59" fill="none"><g id="Group 329"><path id="Vector" d="M12.7689 10.8408C13.5274 11.0214 14.2301 11.1331 14.895 11.3547C18.6301 12.6025 20.7644 16.4952 19.8253 20.2976C18.8731 24.1559 15.2644 26.5414 11.2469 25.9717C7.50688 25.4414 4.71746 21.9591 4.93582 18.0927C5.13283 14.5858 7.65136 11.6847 11.0926 11.0789C11.6951 10.9722 11.8445 10.7489 11.8396 10.1825C11.8166 7.20259 11.8265 4.22108 11.8248 1.23956C11.8248 1.0212 11.7723 0.781499 11.8445 0.589408C11.925 0.371048 12.1187 0.195375 12.2632 0C12.4339 0.203584 12.6441 0.387466 12.759 0.61896C12.8345 0.77329 12.7738 0.994933 12.7738 1.18538C12.7738 4.13899 12.7738 7.09259 12.7738 10.0462C12.7738 10.3138 12.7738 10.5831 12.7738 10.8408H12.7689ZM14.6389 19.984C14.6389 18.9037 14.6586 17.8792 14.6175 16.8548C14.611 16.7054 14.3269 16.4459 14.166 16.441C13.0233 16.4049 11.879 16.4049 10.7363 16.4394C10.5656 16.4443 10.2602 16.6774 10.2553 16.8154C10.2142 17.8628 10.2323 18.9136 10.2323 19.984H14.6389ZM15.6781 20.0005H18.8616C19.231 18.9218 19.1325 17.8776 18.8567 16.8465C18.8107 16.6758 18.5464 16.4525 18.374 16.4459C17.4595 16.4065 16.5434 16.4279 15.5944 16.4279C15.6256 17.0863 15.6617 17.651 15.6749 18.2158C15.688 18.7822 15.6781 19.3487 15.6781 20.0021V20.0005ZM9.20943 16.423C8.7957 16.423 8.39346 16.423 7.99121 16.423C5.96687 16.423 5.71896 16.6955 5.87493 18.7625C5.89463 19.0351 5.88478 19.3175 5.96195 19.5736C6.01448 19.746 6.19344 20.0037 6.32314 20.0087C7.26554 20.0464 8.20957 20.0284 9.20943 20.0284V16.423ZM10.1962 21.0282C10.7445 22.386 11.196 23.5747 11.7066 24.7387C11.9053 25.1918 12.7918 25.3412 13.0233 24.9587C13.7507 23.7536 14.2481 22.4517 14.4911 21.0282H10.1962ZM10.3932 15.4264H14.4862C13.9789 14.2558 13.5536 13.1837 13.048 12.1477C12.8444 11.7323 12.0136 11.7323 11.8084 12.1543C11.306 13.1903 10.8874 14.2673 10.3932 15.4264ZM18.5825 20.9905C17.5613 20.9905 16.7174 20.9773 15.8752 21.0036C15.7323 21.0085 15.509 21.153 15.4663 21.2811C15.0838 22.4287 14.7325 23.5878 14.3351 24.8651C16.3217 24.1706 17.7091 23 18.5825 20.9921V20.9905ZM10.5262 24.8175C10.1354 23.5763 9.79392 22.4632 9.42615 21.3599C9.3769 21.2137 9.19958 21.0102 9.07645 21.0069C8.21778 20.9757 7.35748 20.9905 6.34284 20.9905C7.24091 22.9376 8.54779 24.1591 10.5262 24.8191V24.8175ZM14.2465 12.1362C14.675 13.3364 15.0477 14.3806 15.4138 15.4067H18.3001C17.3725 13.7353 16.0886 12.7125 14.2465 12.1362ZM10.5968 12.151C8.81047 12.7864 7.51838 13.7567 6.64658 15.4658C7.55614 15.4658 8.31465 15.4888 9.06988 15.4494C9.25212 15.4395 9.51973 15.2606 9.58212 15.0964C9.9269 14.1885 10.2208 13.2608 10.5968 12.1526V12.151Z" fill="black"></path><path id="Vector_2" d="M28.3087 8.00041C28.3087 5.84472 28.3087 3.74321 28.3087 1.64171C28.3087 1.42335 28.2463 1.17872 28.3235 0.991551C28.44 0.712445 28.6551 0.474383 28.8275 0.218262C28.9736 0.469458 29.2412 0.719012 29.2445 0.973491C29.279 3.07828 29.2806 5.18472 29.2544 7.28951C29.2478 7.82802 29.3972 8.02175 29.9603 8.11698C33.0683 8.64236 35.0893 11.353 34.8447 14.5857C34.6313 17.4063 32.1029 19.782 29.1985 19.892C26.1579 20.0069 23.5212 17.8447 23.0615 14.8566C22.6018 11.8734 24.4718 9.01833 27.4123 8.21713C27.6749 8.14653 27.9409 8.09071 28.3103 8.00205L28.3087 8.00041ZM27.3088 12.4563V14.9436H30.5333C30.5333 14.2343 30.5694 13.5858 30.5103 12.9455C30.4939 12.7682 30.1984 12.4891 30.0178 12.4776C29.1559 12.4284 28.289 12.4563 27.3088 12.4563ZM27.34 15.996C27.7193 16.9466 28.0247 17.7577 28.3661 18.5539C28.5812 19.0547 29.1099 19.122 29.3233 18.7427C29.788 17.9136 30.0785 16.986 30.4824 15.996H27.34ZM31.5398 14.9387H33.8481C33.8481 14.2508 33.8859 13.6285 33.8251 13.0145C33.8054 12.8191 33.5395 12.5104 33.3622 12.4907C32.7547 12.4251 32.1357 12.4661 31.5398 12.4661V14.9387ZM26.3008 15.0093V12.4628C25.6982 12.4628 25.1318 12.4448 24.5687 12.4743C24.416 12.4825 24.15 12.6303 24.1401 12.7321C24.0794 13.4299 24.0088 14.144 24.1106 14.827C24.1287 14.9485 24.9381 14.9633 25.3846 15.0043C25.6522 15.029 25.9231 15.0093 26.3008 15.0093ZM30.3183 11.4712C29.9833 10.6601 29.7371 9.97058 29.4169 9.31878C29.1723 8.81967 28.6781 8.80818 28.4269 9.30236C28.0887 9.97058 27.8391 10.6831 27.5141 11.4712H30.3183ZM33.4886 15.9894H31.4199C31.1424 16.8465 30.8715 17.6854 30.5645 18.6294C31.9502 18.1583 32.8122 17.3045 33.4869 15.9894H33.4886ZM24.3864 15.9911C25.0563 17.2996 25.91 18.1303 27.2448 18.6097C26.9312 17.6493 26.6636 16.8284 26.3911 15.9911H24.3864ZM33.2029 11.4006C32.5593 10.3548 31.7466 9.67341 30.6039 9.27938C31.108 11.573 31.2869 11.7224 33.2029 11.4006ZM27.2908 9.2449C26.0742 9.74893 25.2402 10.3843 24.654 11.5073C25.2402 11.5073 25.6769 11.5418 26.1037 11.4909C26.2975 11.4679 26.5684 11.3169 26.639 11.1543C26.8787 10.5895 27.0429 9.9952 27.2924 9.2449H27.2908Z" fill="black"></path><path id="Vector_3" d="M39.3955 5.41806C39.7698 5.70701 40.0736 5.94179 40.3789 6.17657C40.0736 6.37851 39.7665 6.58045 39.4267 6.80538C39.2362 7.07135 38.9982 7.40792 38.7601 7.74285C38.5368 7.42434 38.3136 7.10419 38.1182 6.82672C37.8013 6.59523 37.4877 6.36538 37.1758 6.13717C37.4959 5.9106 37.8161 5.68403 38.0722 5.50343C38.33 5.17014 38.5647 4.86477 38.8012 4.56104C39.0097 4.86149 39.2182 5.16029 39.3971 5.41806H39.3955Z" fill="black"></path><path id="Vector_4" d="M19.6997 7.22972C20.0954 7.53838 20.3991 7.7748 20.7012 8.00958C20.3942 8.20988 20.0855 8.41018 19.7654 8.62033C19.5585 8.90436 19.3172 9.23436 19.0758 9.56437C18.869 9.26392 18.6621 8.96347 18.406 8.59078C18.1728 8.42824 17.8363 8.19182 17.498 7.9554C17.8051 7.74689 18.1104 7.53838 18.4569 7.30196C18.6473 7.04748 18.8919 6.72076 19.1349 6.39404C19.3385 6.69613 19.5421 6.99823 19.6997 7.22972Z" fill="black"></path><path id="Vector_5" d="M7.35494 7.25174C7.75882 7.53905 8.05763 7.75084 8.35644 7.96264C8.04449 8.19085 7.73419 8.4207 7.40912 8.65876C7.22031 8.92638 6.99538 9.24324 6.77045 9.56011C6.53896 9.25966 6.30747 8.96085 6.01522 8.5816C5.80343 8.4207 5.48 8.17771 5.1582 7.93309C5.4685 7.73114 5.77716 7.52756 6.0809 7.3289C6.30747 7.04159 6.55538 6.72636 6.80329 6.41113C7.00687 6.71815 7.20882 7.02681 7.35658 7.25009L7.35494 7.25174Z" fill="black"></path><path id="Vector_6" d="M22.9827 26.4496C22.7693 26.7681 22.5493 27.0964 22.3293 27.4264C22.0978 27.1194 21.8679 26.8108 21.6496 26.5234C21.3491 26.2772 21.0388 26.026 20.7285 25.7731C21.0372 25.5745 21.3458 25.3758 21.6184 25.2002C21.863 24.8767 22.1076 24.5516 22.3523 24.2266C22.5493 24.5434 22.7463 24.8603 22.8579 25.0409C23.2585 25.3709 23.5688 25.6254 23.8791 25.8815C23.5688 26.0785 23.2602 26.2755 22.9811 26.4528L22.9827 26.4496Z" fill="black"></path><path id="Vector_7" d="M14.6371 19.9844H10.2305C10.2305 18.9139 10.2125 17.8648 10.2535 16.8157C10.2584 16.6778 10.5638 16.4446 10.7346 16.4397C11.8772 16.4052 13.0216 16.4052 14.1643 16.4414C14.3268 16.4463 14.6109 16.7057 14.6158 16.8551C14.6552 17.8779 14.6371 18.9041 14.6371 19.9844Z" fill="#F0EEE8"></path><path id="Vector_8" d="M15.6755 19.9994C15.6755 19.3476 15.6854 18.7796 15.6722 18.2131C15.6591 17.6483 15.623 17.0819 15.5918 16.4252C16.5408 16.4252 17.4585 16.4039 18.3714 16.4433C18.5438 16.4515 18.8081 16.6731 18.8541 16.8439C19.1299 17.8749 19.2284 18.9191 18.859 19.9978H15.6755V19.9994Z" fill="#F0EEE8"></path><path id="Vector_9" d="M9.20626 16.4214V20.0268C8.20804 20.0268 7.26236 20.0448 6.31997 20.0071C6.19027 20.0022 6.01131 19.7444 5.95877 19.572C5.88161 19.3159 5.89146 19.0335 5.87176 18.761C5.71743 16.6939 5.9637 16.4214 7.98804 16.4214C8.39028 16.4214 8.79252 16.4214 9.20626 16.4214Z" fill="#F0EEE8"></path><path id="Vector_10" d="M10.1934 21.0283H14.4883C14.2453 22.4534 13.7479 23.7537 13.0205 24.9588C12.7891 25.3413 11.9025 25.1919 11.7038 24.7388C11.1932 23.5748 10.7401 22.3861 10.1934 21.0283Z" fill="#F0EEE8"></path><path id="Vector_11" d="M10.3887 15.4268C10.8829 14.266 11.3015 13.1907 11.8039 12.1547C12.0091 11.7327 12.8399 11.7327 13.0435 12.1481C13.5491 13.1825 13.9744 14.2562 14.4817 15.4268H10.3887Z" fill="#F0EEE8"></path><path id="Vector_12" d="M18.5774 20.9903C17.704 22.9998 16.3167 24.1688 14.3301 24.8633C14.7274 23.586 15.0787 22.4269 15.4613 21.2792C15.504 21.1512 15.7273 21.0067 15.8701 21.0018C16.7123 20.9755 17.5546 20.9886 18.5774 20.9886V20.9903Z" fill="#F0EEE8"></path><path id="Vector_13" d="M10.5232 24.8175C8.54479 24.1575 7.23791 22.9377 6.33984 20.9888C7.35448 20.9888 8.21478 20.9741 9.07345 21.0053C9.19822 21.0102 9.37554 21.2138 9.42315 21.3583C9.79091 22.4632 10.1324 23.5747 10.5232 24.8159V24.8175Z" fill="#F0EEE8"></path><path id="Vector_14" d="M14.2461 12.1367C16.0882 12.7114 17.3737 13.7358 18.2997 15.4072H15.4134C15.0473 14.3811 14.6746 13.3385 14.2461 12.1367Z" fill="#F0EEE8"></path><path id="Vector_15" d="M10.5928 12.1511C10.2168 13.2609 9.9229 14.1869 9.57812 15.0948C9.51573 15.259 9.24812 15.4396 9.06588 15.4478C8.31065 15.4872 7.55214 15.4642 6.64258 15.4642C7.51438 13.7551 8.80648 12.7848 10.5928 12.1494V12.1511Z" fill="#F0EEE8"></path><path id="Vector_16" d="M27.3066 12.4571C28.2868 12.4571 29.1537 12.4292 30.0156 12.4784C30.1962 12.4883 30.4917 12.769 30.5082 12.9464C30.5673 13.5867 30.5311 14.2352 30.5311 14.9444H27.3066V12.4571Z" fill="#F0EEE8"></path><path id="Vector_17" d="M27.3379 15.9966H30.4803C30.0764 16.9866 29.7875 17.9142 29.3212 18.7433C29.1078 19.1226 28.5791 19.0553 28.364 18.5545C28.0225 17.7582 27.7171 16.9472 27.3379 15.9966Z" fill="#F0EEE8"></path><path id="Vector_18" d="M31.5391 14.9388V12.4663C32.135 12.4663 32.754 12.4252 33.3615 12.4909C33.5404 12.5106 33.8064 12.8176 33.8245 13.0146C33.8852 13.627 33.8474 14.2493 33.8474 14.9388H31.5391Z" fill="#F0EEE8"></path><path id="Vector_19" d="M26.3002 15.0096C25.9226 15.0096 25.65 15.0293 25.3841 15.0047C24.9375 14.9636 24.1297 14.9489 24.11 14.8274C24.0082 14.1444 24.0788 13.4318 24.1396 12.7324C24.1478 12.6306 24.4138 12.4829 24.5681 12.4747C25.1312 12.4435 25.6976 12.4632 26.3002 12.4632V15.0096Z" fill="#F0EEE8"></path><path id="Vector_20" d="M30.3179 11.4712H27.5137C27.8404 10.6831 28.0883 9.97055 28.4265 9.30234C28.6761 8.80815 29.1703 8.81965 29.4165 9.31876C29.7367 9.97055 29.9829 10.6601 30.3179 11.4712Z" fill="#F0EEE8"></path><path id="Vector_21" d="M33.4888 15.9897C32.814 17.3048 31.9521 18.1586 30.5664 18.6298C30.8718 17.6841 31.1443 16.8451 31.4218 15.9897H33.4905H33.4888Z" fill="#F0EEE8"></path><path id="Vector_22" d="M24.3867 15.9912H26.3914C26.6639 16.8285 26.9315 17.6494 27.2451 18.6099C25.9103 18.1305 25.0566 17.2997 24.3867 15.9912Z" fill="#F0EEE8"></path><path id="Vector_23" d="M33.2044 11.4005C31.2885 11.7223 31.1095 11.5729 30.6055 9.2793C31.7482 9.67333 32.5609 10.3547 33.2044 11.4005Z" fill="#F0EEE8"></path><path id="Vector_24" d="M27.2907 9.24512C27.0428 9.99542 26.877 10.5898 26.6373 11.1545C26.5683 11.3187 26.2974 11.4681 26.1021 11.4911C25.6752 11.542 25.2385 11.5075 24.6523 11.5075C25.2385 10.3862 26.0725 9.75079 27.2891 9.24512H27.2907Z" fill="#F0EEE8"></path><path id="Vector_25" d="M1.41406 31.3359H56.6099" stroke="black" stroke-width="0.985082" stroke-miterlimit="10" stroke-linecap="round"></path><path id="Vector_26" d="M13.6517 31.498L1 57.5682" stroke="black" stroke-width="0.985082" stroke-miterlimit="10" stroke-linecap="round"></path><path id="Vector_27" d="M45.3652 31.498L58.017 57.5682" stroke="black" stroke-width="0.985082" stroke-miterlimit="10" stroke-linecap="round"></path><path id="Vector_28" d="M35.9062 31.3359L42.7493 57.5687" stroke="black" stroke-width="0.985082" stroke-miterlimit="10" stroke-linecap="round"></path><path id="Vector_29" d="M29 32L30 58" stroke="black" stroke-width="0.985082" stroke-miterlimit="10" stroke-linecap="round"></path><path id="Vector_30" d="M21.8899 31.3359L15.0469 57.5687" stroke="black" stroke-width="0.985082" stroke-miterlimit="10" stroke-linecap="round"></path><path id="Vector_31" d="M1.41406 37.4238H56.6099" stroke="black" stroke-width="0.985082" stroke-miterlimit="10" stroke-linecap="round"></path><path id="Vector_32" d="M1.41406 45.1504H56.6099" stroke="black" stroke-width="0.985082" stroke-miterlimit="10" stroke-linecap="round"></path></g></svg>