<svg xmlns="http://www.w3.org/2000/svg" width="70" height="70" viewBox="0 0 70 70" fill="none">
  <!-- Left person -->
  <circle cx="16" cy="16" r="7" fill="#F0EEE8" stroke="black" stroke-width="1.5"/>
  <circle cx="14.5" cy="14.5" r="1.4" fill="black"/>
  <circle cx="17.5" cy="14.5" r="1.4" fill="black"/>
  
  <path d="M9 25 L16 22 L23 25 L23 42 L16 39 L9 42 Z" fill="#F0EEE8" stroke="black" stroke-width="1.5"/>
  <path d="M16 22 L16 34" stroke="black" stroke-width="2"/>
  <path d="M13 25 L16 22 L19 25" stroke="black" stroke-width="1.5" fill="none"/>
  <rect x="14.5" y="29" width="3" height="5" fill="black"/>
  
  <!-- Center person -->
  <circle cx="35" cy="13" r="8" fill="#F0EEE8" stroke="black" stroke-width="1.5"/>
  <circle cx="33" cy="12" r="1.6" fill="black"/>
  <circle cx="37" cy="12" r="1.6" fill="black"/>
  
  <path d="M24 27 L35 23 L46 27 L46 50 L35 47 L24 50 Z" fill="#F0EEE8" stroke="black" stroke-width="1.5"/>
  <path d="M35 23 L35 42" stroke="black" stroke-width="2.5"/>
  <path d="M30 28 L35 23 L40 28" stroke="black" stroke-width="1.5" fill="none"/>
  <rect x="33.5" y="34" width="3" height="8" fill="black"/>
  
  <!-- Lapels -->
  <line x1="29" y1="29" x2="32" y2="34" stroke="black" stroke-width="1.3"/>
  <line x1="41" y1="29" x2="38" y2="34" stroke="black" stroke-width="1.3"/>
  
  <!-- Right person -->
  <circle cx="54" cy="16" r="7" fill="#F0EEE8" stroke="black" stroke-width="1.5"/>
  <circle cx="52.5" cy="14.5" r="1.4" fill="black"/>
  <circle cx="55.5" cy="14.5" r="1.4" fill="black"/>
  
  <!-- Suit -->
  <path d="M47 25 L54 22 L61 25 L61 42 L54 39 L47 42 Z" fill="#F0EEE8" stroke="black" stroke-width="1.5"/>
  <path d="M54 22 L54 34" stroke="black" stroke-width="2"/>
  <path d="M51 25 L54 22 L57 25" stroke="black" stroke-width="1.5" fill="none"/>
  
</svg>