<svg xmlns="http://www.w3.org/2000/svg" width="53" height="52" viewBox="0 0 53 52" fill="none"><path d="M10.5 15.9004H17.5C23.0229 15.9004 27.5 20.3775 27.5 25.9004V40.5358C27.5 41.0685 27.0682 41.5004 26.5355 41.5004H1.46455C0.931842 41.5004 0.5 41.0685 0.5 40.5358V25.9004C0.5 20.3776 4.97715 15.9004 10.5 15.9004Z" fill="#F0EEE8" stroke="black"></path><rect x="14.5742" y="29.4009" width="4.27159" height="1.22045" rx="0.610227" transform="rotate(90 14.5742 29.4009)" fill="black"></rect><rect x="14.5742" y="34.3008" width="4.27159" height="1.22045" rx="0.610227" transform="rotate(90 14.5742 34.3008)" fill="black"></rect><path d="M17.1876 16.2508L13.9461 25.7523L10.7046 16.2508L17.1876 16.2508Z" fill="white" stroke="black"></path><circle cx="13.9633" cy="7.35049" r="6.85" stroke="black"></circle><rect x="7" y="31" width="11" height="1" rx="0.5" transform="rotate(90 7 31)" fill="black"></rect><rect x="22.4023" y="30.1006" width="11.2" height="1.4" rx="0.7" transform="rotate(90 22.4023 30.1006)" fill="black"></rect><path d="M31 19.5669H39.6667C46.5702 19.5669 52.1667 25.1633 52.1667 32.0669V50.187C52.1667 50.9123 51.5787 51.5002 50.8534 51.5002H19.8132C19.088 51.5002 18.5 50.9123 18.5 50.187V32.0669C18.5 25.1633 24.0964 19.5669 31 19.5669Z" fill="#F0EEE8" stroke="black"></path><rect x="36.043" y="36.4009" width="5.28864" height="1.51104" rx="0.75552" transform="rotate(90 36.043 36.4009)" fill="black"></rect><rect x="36.043" y="42.4673" width="5.28864" height="1.51104" rx="0.75552" transform="rotate(90 36.043 42.4673)" fill="black"></rect><path d="M39.4448 20.0008L35.2651 32.2523L31.0854 20.0008L39.4448 20.0008Z" fill="white" stroke="black"></path><circle cx="35.2875" cy="9.10049" r="8.6" stroke="black"></circle><rect x="28" y="38" width="14" height="0.999999" rx="0.5" transform="rotate(90 28 38)" fill="black"></rect><rect x="44" y="38" width="14" height="0.999999" rx="0.5" transform="rotate(90 44 38)" fill="black"></rect></svg>