<svg xmlns="http://www.w3.org/2000/svg" width="52" height="52" viewBox="0 0 52 52" fill="none"><g id="Group 281"><g id="Union"><mask id="path-1-inside-1_2130_407" fill="white"><path fill-rule="evenodd" clip-rule="evenodd" d="M2.09221 0C0.936713 0 0 0.936715 0 2.09221V49.9078C0 51.0633 0.936714 52 2.09221 52H22.0922H29.9078H49.9078C51.0633 52 52 51.0633 52 49.9078V21.0922C52 19.9367 51.0633 19 49.9078 19H32V2.09221C32 0.936713 31.0633 0 29.9078 0H2.09221Z"></path></mask><path fill-rule="evenodd" clip-rule="evenodd" d="M2.09221 0C0.936713 0 0 0.936715 0 2.09221V49.9078C0 51.0633 0.936714 52 2.09221 52H22.0922H29.9078H49.9078C51.0633 52 52 51.0633 52 49.9078V21.0922C52 19.9367 51.0633 19 49.9078 19H32V2.09221C32 0.936713 31.0633 0 29.9078 0H2.09221Z" fill="#F0EEE8"></path><path d="M32 19H31V20H32V19ZM1 2.09221C1 1.489 1.489 1 2.09221 1V-1C0.384427 -1 -1 0.384432 -1 2.09221H1ZM1 49.9078V2.09221H-1V49.9078H1ZM2.09221 51C1.489 51 1 50.511 1 49.9078H-1C-1 51.6156 0.38443 53 2.09221 53V51ZM22.0922 51H2.09221V53H22.0922V51ZM29.9078 51H22.0922V53H29.9078V51ZM49.9078 51H29.9078V53H49.9078V51ZM51 49.9078C51 50.511 50.511 51 49.9078 51V53C51.6156 53 53 51.6156 53 49.9078H51ZM51 21.0922V49.9078H53V21.0922H51ZM49.9078 20C50.511 20 51 20.489 51 21.0922H53C53 19.3844 51.6156 18 49.9078 18V20ZM32 20H49.9078V18H32V20ZM31 2.09221V19H33V2.09221H31ZM29.9078 1C30.511 1 31 1.489 31 2.09221H33C33 0.384428 31.6156 -1 29.9078 -1V1ZM2.09221 1H29.9078V-1H2.09221V1Z" fill="black" mask="url(#path-1-inside-1_2130_407)"></path></g><path id="Line 39" d="M19 11L19 1" stroke="black" stroke-linecap="round"></path><path id="Line 44" d="M41 43L51 43" stroke="black" stroke-linecap="round"></path><path id="Line 43" d="M19 51L19 33" stroke="black" stroke-linecap="round"></path><path id="Line 40" d="M1 26H6" stroke="black" stroke-linecap="round"></path><path id="Line 41" d="M19 33H27" stroke="black" stroke-linecap="round"></path><path id="Arrow 4" d="M42.6464 13.3536C42.8417 13.5488 43.1583 13.5488 43.3536 13.3536L46.5355 10.1716C46.7308 9.97631 46.7308 9.65973 46.5355 9.46447C46.3403 9.2692 46.0237 9.2692 45.8284 9.46447L43 12.2929L40.1716 9.46447C39.9763 9.2692 39.6597 9.2692 39.4645 9.46447C39.2692 9.65973 39.2692 9.97631 39.4645 10.1716L42.6464 13.3536ZM42.5 -2.1857e-08L42.5 13L43.5 13L43.5 2.1857e-08L42.5 -2.1857e-08Z" fill="black"></path></g></svg>