<?xml version="1.0" encoding="UTF-8"?> <!-- Generator: Adobe Illustrator 22.1.0, SVG Export Plug-In . SVG Version: 6.00 Build 0) --> <svg xmlns="http://www.w3.org/2000/svg" xmlns:xlink="http://www.w3.org/1999/xlink" id="Layer_1" x="0px" y="0px" viewBox="0 0 262 641" style="enable-background:new 0 0 262 641;" xml:space="preserve"> <style type="text/css"> .st0{fill:#D1B371;} </style> <g> <g> <path class="st0" d="M2.5,489.5c1.9-0.3,2.8,0.5,2.5,2.5c-0.1,1.2,0.1,2.5-0.1,3.7c-0.4,3.1,0.6,5.7,2.9,8 c0.9-0.6,1.1-1.7,1.6-2.6c6.4-13.4,12.8-26.9,19.2-40.3c10.6-22.2,21.2-44.5,31.8-66.7c6.6-13.8,13.2-27.6,19.7-41.5 c5.9-12.4,11.8-24.8,17.7-37.2c0.5-1.1,0.6-2.2,0.6-3.4c0-10,0.1-20,0-30c-0.1-7.8,1.8-14.9,7.1-20.9c1.5-1.6,2-3.5,2-5.7 c-0.1-18.3,0-36.7-0.1-55c0-3.5,0.7-6.5,2.7-9.3c1.6-2.3,3.1-4.7,4.6-7.1c0.2-0.3,0.3-0.7,0.6-0.8c4.1-1.3,2.8-4.9,2.9-7.5 c0.5-7.1,0.4-14.3,0.7-21.4c0.4-8.8,0.7-17.6,1-26.4c0.3-8.2,0.7-16.4,1-24.6c0.1-3.6,0.4-7.1,0.4-10.7c0-1.1-0.3-1.8-1.1-2.5 c-4.4-4-4.1-9.6,0.6-13.2c1.1-0.8,1.4-1.7,1.5-3c0.2-7.1,0.2-14.1,0.6-21.2c0.4-8.9,0.9-17.8,1-26.7c0-1.2,0.3-1.9,1.7-1.9 c1.4,0,1.2,1,1.3,1.9c0.6,3.1,0.4,6.3,0.4,9.5c0,8,0.5,16,0.7,23.9c0.1,4.8,0.2,9.6,0.3,14.5c0,1.3,0.4,2.2,1.5,3.1 c4.9,3.7,4.9,9.5,0.1,13.3c-1.3,1-1.3,2.3-1,3.6c0.4,1.7,0.3,3.3,0.4,5c0.2,9.3,0.2,18.6,0.6,27.9c0.5,11.1,0.6,22.3,1.1,33.4 c0.3,6.9-0.1,13.8,0.7,20.7c0.2,1.5,1.3,1.7,1.8,2.7c1.9,3.4,3.7,6.9,5.6,10.3c0.8,1.4,0.4,1.9-1.1,1.8c-1.7-0.1-3.5,0.1-5.2,0 c-1.6-0.1-2,0.5-2,2c0.1,9.1-0.3,18.2,0.2,27.2c0.5,9.3,0.2,18.6,0.3,28c0,1.8,0.4,2.9,2.3,3.2c5.3,0.7,8.5,3.9,10.9,8.4 c0.4,0.8,1.2,1.4,1.2,2.5c-1.4-0.1-3.4-0.9-4-0.3c-1.1,1.2-0.3,3.2-0.4,4.8c-0.2,1.7,0,3.2,2.2,3.4c0.4,0,0.9,0.3,1,0.6 c0.5,2.5,0.3,5.1,0.1,7.7c0,0.6-0.7,0.6-1.2,0.4c-2.1-0.8-2.2,0.4-2.2,2c0,7.7,0,15.5,0,23.2c0,0.8,0.6,2.4-0.9,2.3 s-0.8-1.6-0.9-2.4c-0.1-8,0-16,0-24c0-1.3,0.1-2.5-1.8-2.5c-1.3,0-1.9-0.9-1.8-2.2c0.1-1.4,0.1-2.8,0-4.2c0-1.6-0.1-3,2.2-2.1 c1,0.4,1.3-0.3,1.3-1.2c0-1.7,0-3.5,0-5.2c0-0.9-0.5-1.2-1.3-1.5c-2.5-0.7-2.8-0.6-2.8,2c0,13.5,0,27,0,40.5c0,0.6,0,1.2,0,1.7 c0,0.6,0.1,1.3-0.8,1.2c-0.7,0-0.7-0.6-0.7-1.1c0-0.6,0-1.2,0-1.7c0-13.6,0-27.2,0-40.7c0-2.4-2.1-4.1-4.3-3.5 c-1.2,0.3-0.6,1.4-0.6,2.1c0,11.5,0.3,23-0.1,34.5c-0.3,8.1,1.3,15.8,3.2,23.5c7.6,30.3,15.1,60.5,22.6,90.8 c4.4,17.6,8.7,35.1,13.1,52.7c0,0.2,0.2,0.4,0.1,0.5c-0.3,0.7,1.1,1.8-0.2,2.1c-1,0.2-1-1.1-1.2-1.8c-3-11.9-5.9-23.8-8.9-35.8 c-4.1-16.5-8.2-33-12.3-49.5c-4.5-18.2-9-36.4-13.5-54.6c-0.8-3.2-1.5-6.4-2.5-10.2c-1.3,9.6,0.6,18,2.8,26.6 c6.7,26.2,13.1,52.5,19.6,78.7c3.7,14.9,7.4,29.8,11,44.7c0.2,0.9,1.4,2.3-0.1,2.7c-0.9,0.2-0.9-1.4-1.2-2.3 c-6.6-26.4-13.1-52.8-19.7-79.2c-4.1-16.7-8.2-33.3-12.8-50c0,2.1,0,4.1,0,6.2c0,2.2-0.1,4.3,0.5,6.4s1,4.2,1.6,6.3 c5,20.3,10.1,40.6,15.1,60.9c4.1,16.7,8.2,33.3,12.4,50c0.1,0.3,0.2,0.6,0.3,1c0.1,0.5,0.4,1.3-0.4,1.5c-0.8,0.2-0.8-0.6-1-1.1 c-1.1-4.4-2.3-8.8-3.4-13.3c-5.9-23.9-11.8-47.9-17.8-71.8c-2.1-8.5-4.2-17.1-6.3-25.6c-0.2-0.7-0.4-1.4-0.8-2.5 c-0.9,8.6,0.3,16.4,2.3,24.2c6.9,26.9,13.5,53.9,20.2,80.9c0.7,2.7,1.3,5.5,1.9,8.2c0.2,0.7,0.7,1.6-0.3,1.8 c-0.8,0.2-0.8-0.9-0.9-1.5c-2.3-9.3-4.6-18.5-7-27.8c-5.3-21.4-10.7-42.8-16-64.3c-0.1-0.2-0.1-0.4-0.2-0.7 c-1.2,8.8,0.7,17.1,2.9,25.5c4.9,18.9,9.5,37.8,14.1,56.8c2.8,11.3,5.6,22.6,8.2,33.9c0.5,2,1.6,2.7,3.3,2.9 c6.3,0.6,12.5,1.2,18.8,1.9c1.9,0.2,1.3-1.1,1.3-2c0-6.7,0-13.3,0-20c0-2.3,0-4.7,0-7c0-1.2-0.6-2.6,1.5-3.1c1-0.2,0.2-1.5,0-2.2 c-4.2-17.2-8.5-34.5-12.8-51.7c-6.3-25.5-12.7-51.1-19-76.6c-1.7-6.7-3.2-13.4-4.9-20.1c-0.1-0.2-0.2-0.5-0.2-0.7 c0-0.6-0.5-1.5,0.4-1.7s0.9,0.7,1,1.4c1,3.9,1.9,7.9,2.9,11.8c7.9,31.9,15.8,63.8,23.7,95.7c3.5,14,6.9,28,10.4,42 c0.2,1,0.2,2.1,1.7,2.4c1.3,0.3,0.7,1.7,0.7,2.6c0,19.8,0,39.6,0,59.4c0,14,0,28,0,42c0,3.9,0,3.7-2.8,3.9 c-3.8,0.4-2.7-2.3-2.7-4.1c0-19.2-0.1-38.3,0-57.5c0-2.1-0.3-2.9-2.8-3.1c-7.1-0.5-14.2-1.5-21.2-2.3c-5.2-0.5-10.4-1-15.6-1.5 c0,0.2-0.1,0.4,0,0.5c3.3,2.4,3.6,5.7,3.6,9.4c-0.2,14.6-0.1,29.2,0,43.7c0,1.9-0.5,3.4-1.8,4.7c-1.8,1.8-2.3,3.8-2.3,6.3 c0.1,23.4,0.1,46.8,0.1,70.2c-45.2,0-90.3,0-135.5,0C2.5,590.8,2.5,540.2,2.5,489.5z M62,470.7c0,1,0,1.8,0,2.5 c0,30.4,0,60.8,0,91.2c0,0.7,0,1.3,0,2c-0.1,1.1,0.4,1.5,1.5,1.5c1,0,1.9-0.1,2-1.4c0-0.6,0-1.2,0-1.7c0-32.1,0-64.2,0-96.2 c0-1.3,0.4-2.8-1.8-2.8c-0.8,0-0.7-0.8-0.6-1.4c0.2-0.9,0.3-1.8,0.6-2.7c9.2-37.1,18.4-74.2,27.6-111.4c1.4-5.7,2.8-11.4,4.4-17.7 c-2.1,3-35.8,138.6-35.3,140.9C61.3,473,61,471.8,62,470.7z M32.6,476.5c0.6,6.4,0.6,12.6-1.5,18.6c-0.6,1.8-0.9,3.7-1.4,5.5 c-0.2,0.7-0.5,1.5,0.5,2.3c0.9-3.3,1.7-6.4,2.5-9.5c0.1,0,0.2,0,0.3,0c0,0.9,0,1.8,0,2.6c0,24.5,0,49,0,73.4 c0,1.3-0.2,2.5,1.8,2.4c1.6,0,1.7-0.9,1.7-2.1c0-32.6,0-65.3,0-97.9c0-0.6,0.3-1.6-0.5-1.8c-2.3-0.5-1.5-1.9-1.1-3.3 c0.5-1.9,1-3.9,1.5-5.8c0.3-1.2,0.6-2.4,0.8-3.6s0.9-2.3,0.4-3.6c-4.9,16.2-8.5,32.7-12.7,49.1c0.3,0.1,0.7,0.2,1,0.2 C28.1,494.4,30.4,485.4,32.6,476.5z M129.5,398.1c-0.2,5.5-1.2,11,0,16.4c3.1,12.9,6.3,25.8,9.5,38.6c3.4,13.8,6.9,27.5,10.3,41.3 c0.5,2.1,2,2.2,3.4,1.9c1.6-0.3,0.6-1.7,0.4-2.7c-2.3-9.4-4.6-18.8-6.9-28.3c-3.7-15.1-7.5-30.3-11.3-45.4 C133.1,412.7,131.3,405.4,129.5,398.1z M129.5,419.5c-0.1,5.2-1.2,10.3,0,15.3c3.7,15.2,7.4,30.3,11.2,45.4 c1.1,4.5,2.3,9,3.3,13.5c0.4,1.8,1.8,2.3,3.2,2c1.6-0.3,0.6-1.7,0.4-2.7c-0.5-2.1-0.9-4.2-1.4-6.3c-4.1-16.4-8.2-32.8-12.2-49.3 C132.4,431.6,131,425.6,129.5,419.5z M129.5,440c0,6.4-1.2,12.7,0.5,19c2.1,7.5,3.8,15.1,5.7,22.7c1,3.9,2,7.7,2.9,11.6 c0.5,2.3,2.5,2,3.7,1.9c1.5-0.1,0.5-1.6,0.3-2.4c-2.9-11.8-5.7-23.5-8.6-35.3C132.5,451.7,130.9,445.9,129.5,440z M79.4,468.1 c0.4,0.1,0.8,0.2,1.2,0.3c12.7-51.3,25.4-102.6,38.1-154c-0.4-0.1-0.8-0.2-1.2-0.3C104.8,365.4,92.1,416.8,79.4,468.1z M75.5,467.4c0.7-0.6,0.8-1.4,1-2.2c1.6-6.5,3.2-13,4.8-19.6c4.3-17.4,8.6-34.8,12.9-52.2c5.4-21.7,10.8-43.3,16.2-65 c1.1-4.3,2.1-8.7,3.2-13.1c0.1-0.4,0.6-1.1-0.1-1.3c-0.8-0.3-0.9,0.5-1,1s-0.3,1-0.4,1.4c-2.6,10.6-5.2,21.3-7.8,31.9 c-4.5,18.2-9,36.4-13.5,54.6c-5.1,20.6-10.2,41.2-15.3,61.9C75.2,465.7,74.6,466.5,75.5,467.4z M70.8,466.4 c0.5-0.1,0.6-0.5,0.7-0.9c0.2-1,0.5-2.1,0.7-3.1c4.3-17.5,8.6-34.9,13-52.4c6.6-26.7,13.3-53.5,19.9-80.2c1.2-4.7,2.3-9.3,3.5-14 c0.1-0.5,0.7-1.3-0.1-1.5c-0.9-0.2-0.9,0.7-1.1,1.3c-0.1,0.4-0.2,0.8-0.3,1.2c-4,16-7.9,32.1-11.9,48.1 c-7.4,29.6-14.7,59.2-22.1,88.9c-0.9,3.8-1.8,7.6-2.8,11.4C70.3,465.6,69.8,466.3,70.8,466.4z M103.7,313.7 c-1.9,7.8-3.7,15.1-5.5,22.4c-4.3,17.4-8.6,34.8-12.9,52.2c-4.9,19.6-9.8,39.3-14.7,58.9c-1.4,5.7-2.8,11.4-4.2,17.2 c-0.1,0.5-0.8,1.2,0.2,1.4c0.8,0.2,0.7-0.7,0.9-1.2c0.1-0.4,0.3-0.8,0.4-1.2c2.6-10.6,5.2-21.3,7.8-31.9 c4.4-17.6,8.8-35.3,13.1-52.9C94,358,99,337.4,104.1,316.8C104.4,315.9,104.9,315.1,103.7,313.7z M84.3,469 c0.3,0.1,0.5,0.1,0.8,0.2c0.7-0.7,0.7-1.6,0.9-2.4c2.9-11.8,5.9-23.7,8.8-35.5c7.5-30.3,15.1-60.6,22.5-90.8c1-3.9,2.6-7.7,1.7-12 C107.5,375.3,95.9,422.2,84.3,469z M118.7,369.1c-10.5,42.5-21.1,85.1-31.7,128.2c1.8-1,1.8-2.2,2-3.1c2-8,3.9-15.9,5.9-23.9 c7.2-29,14.4-57.9,21.6-86.9C117.5,378.7,119.3,374.1,118.7,369.1z M119,346.6c-3.1,12.6-6.1,25.1-9.2,37.6 c-6.9,27.7-13.8,55.4-20.6,83c-0.2,0.8-1.3,2.1,0,2.5c1.1,0.3,0.9-1.4,1.1-2.1c3.4-13.4,6.7-26.9,10-40.3 c6.2-24.9,12.4-49.9,18.6-74.8C119.4,350.5,119.8,348.6,119,346.6z M85.3,354.4c-0.3-0.1-0.6-0.1-0.9-0.2 c-9.8,39.6-19.6,79.3-29.6,119.4C56.5,472.4,85.1,359.3,85.3,354.4z M118.4,391.3c-4.6,14.1-26.1,103.2-25.2,105.1 c0.3-0.9,0.6-1.7,0.8-2.5c2.1-8.5,4.1-16.9,6.2-25.4c5.4-21.7,10.8-43.3,16.1-65C117.3,399.7,119,395.8,118.4,391.3z M50.3,472.2 c0.3,0.1,0.5,0.1,0.8,0.2c7.8-31.5,15.6-63,23.5-95.1C72.7,379.4,50.1,468.9,50.3,472.2z M112.5,233.2c0,3.2,0,6.3,0,9.5 c0,0.5-0.3,1.2,0.4,1.5c0.9,0.4,4-1.4,4-2.5c0-6.6,0-13.3,0-19.9c0-0.6,0-1.2-0.8-1.2c-1.7-0.1-3.6,1.5-3.6,3.2 C112.5,226.9,112.5,230.1,112.5,233.2z M117.8,414.8c-0.2,0.4-0.3,0.6-0.3,0.9c-5,20.1-10,40.2-15,60.3 c-1.5,6.2-3.1,12.4-4.6,18.6c-0.1,0.4-0.6,1,0.2,1.2c0.7,0.2,0.8-0.4,0.9-0.9c0.4-1.7,0.8-3.4,1.2-5.1c5.7-23,11.4-46,17.2-69 C117.9,419,118.2,417,117.8,414.8z M66.2,395.1c-1.5,1.1-1.8,2.5-2.2,3.9c-5,20-10,40.1-14.9,60.1c-0.9,3.8-1.9,7.6-2.8,11.3 c-0.1,0.5-0.5,1,0.2,1.3c0.6,0.2,0.8-0.4,1-0.9c0.1-0.5,0.2-1,0.3-1.5c5.1-20.5,10.2-41,15.2-61.5 C64.1,403.6,65.1,399.4,66.2,395.1z M102.8,495.5c1.6-0.6,1.6-1.5,1.8-2.3c4.1-16.6,8.3-33.3,12.4-49.9c0.5-1.9,0.8-3.8,0.3-6.4 C112.4,456.7,107.6,475.9,102.8,495.5z M41.9,470.6c0.4,0.1,0.8,0.2,1.2,0.3c4.7-18.9,9.4-37.9,14.1-56.8 c-0.3-0.1-0.6-0.2-0.9-0.2C50.9,432.7,46.8,451.7,41.9,470.6z M129.5,462.1c-0.2,0-0.3,0-0.5,0c0,4.4,0,8.8,0,13.2 c0,0.7-0.1,1.8,1,1.7c3.1-0.4,2.5,1.8,2.5,3.5c0,1.2,0,2.3,0,3.5c0,1,0.2,1.6,1.4,1.6c1.3-0.1,1.2-1,1-1.8 C133.1,476.5,131.3,469.3,129.5,462.1z M47.2,435c-2.3,2.7-9.9,33.3-8.8,35.7C41.3,458.5,44.2,446.8,47.2,435z M106.8,268 c0,14.1,0,28.1,0,42.6C107.7,308.4,108,275.4,106.8,268z M27.2,477.1c-2.2,2.5-7.8,24.9-6.9,27.5C22.7,494.9,25,486,27.2,477.1z M116.9,461.6c-2.1,7.8-4.4,15.5-5.4,23.6C113.3,477.3,116.6,469.8,116.9,461.6z M111.6,277.6c-0.8-1.2,1.2-3.8-1.3-3.9 c-2.7-0.1-1.8,2.5-1.7,4c0.1,1.4-1.3,3.9,1,4.1C112.5,282,111.1,279.2,111.6,277.6z M114,276.3L114,276.3c0,0.7-0.1,1.3,0,2 c0.1,0.8-0.6,2.1,1,2c1.1-0.1,2.1-0.4,2-2s0-3.2,0-4.7c0-0.7,0.1-1.6-1.1-1.6c-0.9,0.1-1.9,0.3-1.9,1.5 C114,274.5,114,275.4,114,276.3z M112.6,310c0.1,0,0.2-0.1,0.3-0.1c0-14.8,0-29.6,0-44.4c-0.1,0-0.2,0-0.3,0 C112.6,280.3,112.6,295.2,112.6,310z M106,278.7L106,278.7c0-0.7,0.1-1.3,0-2s0.6-1.9-0.7-2c-1-0.1-1.2,0.9-1.5,1.7 c-0.5,1.8-0.2,3.6-0.3,5.4c0,0.5-0.2,1.4,0.6,1.3c0.7-0.1,1.8-0.1,1.8-1.3C106,280.9,106,279.8,106,278.7z M135.9,488 c-0.1,0-0.3,0.1-0.4,0.1c0,1.7,0,3.5,0,5.2c0,0.9,0.5,1.5,1.3,1.4c1-0.1,0.6-1,0.5-1.5C136.9,491.5,136.4,489.8,135.9,488z M110.3,487.4c-0.7,2.4-1.2,4.3-1.7,6.2c-0.1,0.4-0.1,0.9,0.3,1.1c0.6,0.2,0.9-0.3,1-0.8C110.4,492,110.7,490,110.3,487.4z M27.3,475.3c0,0.1-0.1,0.1-0.1,0.2s0,0.1,0.1,0.2c0-0.1,0.1-0.1,0.1-0.2C27.4,475.5,27.3,475.4,27.3,475.3z"></path> <path class="st0" d="M147.5,641.5c0-11.8,0-23.6,0.1-35.4c0-1-0.8-2.7,1.3-2.8c3.9-0.1,4.1,0.1,4.1,2.8c0,11.8,0,23.6,0,35.4 C151.2,641.5,149.3,641.5,147.5,641.5z"></path> <path class="st0" d="M159.5,641.5c0-11.7,0-23.5,0.1-35.2c0-0.8-1-2.4,1-2.4c4.1-0.2,4.4,0,4.4,2.7c0,11.7,0,23.3,0,35 C163.2,641.5,161.3,641.5,159.5,641.5z"></path> <path class="st0" d="M176,641.5c0-11.5,0.1-22.9,0-34.4c0-2.1,0.6-2.7,2.6-2.7c2,0.1,2.9,0.3,2.9,2.7c-0.1,11.5,0,22.9,0,34.4 C179.7,641.5,177.8,641.5,176,641.5z"></path> <path class="st0" d="M196.5,641.5c0-11.3,0.1-22.6,0-33.9c0-2.1,0.5-2.7,2.6-2.7c2,0.1,3,0.2,2.9,2.7c-0.1,11.3,0,22.6,0,33.9 C200.2,641.5,198.3,641.5,196.5,641.5z"></path> <path class="st0" d="M216,641.5c0-11.1,0-22.1,0.1-33.2c0-0.9-0.6-2.3,0.7-2.6s2.9-0.2,4.2,0.1c0.9,0.2,0.5,1.5,0.5,2.2 c0,11.2,0,22.3,0,33.5C219.7,641.5,217.8,641.5,216,641.5z"></path> <path class="st0" d="M233,641.5c0-10.8,0-21.6,0.1-32.4c0-1.2-0.9-3.1,1.6-3c3.2,0,3.8,0.5,3.8,3.3c0,10.7,0,21.5,0,32.2 C236.7,641.5,234.8,641.5,233,641.5z"></path> <path class="st0" d="M256,641.5c0-10.7,0-21.4,0-32.1c0-1.9,0.5-2.6,2.4-2.4c1.6,0.2,3.2-0.4,3.2,2.4c-0.1,10.7,0,21.4,0,32.1 C259.7,641.5,257.8,641.5,256,641.5z"></path> <path class="st0" d="M244.5,641.5c0-10.9,0-21.8-0.1-32.7c0-1.9,0.6-2.5,2.4-2.4c1.7,0.1,2.7,0.1,2.7,2.4 c-0.1,10.9-0.1,21.8-0.1,32.7C247.8,641.5,246.2,641.5,244.5,641.5z"></path> <path class="st0" d="M202.3,442.7c1.7,2.7,2.4,5.6,3.1,8.6c1.5,6,2.2,12.4,4.8,18c1.5,3.2,1.2,6.2,2,9.2c1.8,7.5,3.7,15,5.5,22.5 c0.1,0.4,0.2,0.8,0.3,1.2c0.4,1.3,1.7,1.2,2.5,1s0.2-1.1,0.1-1.7c-2.9-11.9-5.8-23.8-8.8-35.8c-0.2-0.7-0.5-1.4-0.2-2.4 c1.3,1.5,1.9,3.2,2.3,4.9c2.7,10.9,5.4,21.7,8.1,32.6c0.2,0.9,0,2.2,1.1,2.6c0.9,0.3,2,1,2.9,0.4c1-0.7,0.1-1.7-0.1-2.5 c-0.8-3.6-1.8-7.3-2.7-10.9c-0.1-0.5-0.3-1.1,0.1-1.8c2.5,4,3.1,8.4,4,12.6c0.6,2.5,1.8,3.3,4.1,3.3c0.3,0,0.7,0.1,1,0 c1.6-0.3,3.6,1.5,4.7-0.1c1.5-2.2,3-4.5,2.9-7.5c-0.1-5.5,0-5.4,5.5-5.4c1.8,0,2.7,0.3,2.4,2.3c-0.6,3.8,0.6,7.1,3.1,9.9 c3.8,4.2,2,9.2,2.3,13.8c0.1,1.3-1.1,1-1.9,1c-5.2-0.5-10.4-1-15.6-1.6c-5.8-0.6-11.5-1.3-17.3-1.9c-1.7-0.2-3.5-0.3-5.2-0.5 c-1.1-0.1-1.5,0.4-1.5,1.5c0,0.7,0,1.3,0,2c0,19.6,0,39.1,0,58.7c0,2.5-2.1,3.8-4.4,2.7c-0.8-0.4-0.6-1.1-0.6-1.7 c0-2.7,0-5.5,0-8.2c0-31.7,0-63.5,0-95.2c0-1.1-0.6-2.5,1.4-2.9c1-0.2,0.2-1.5,0-2.2c-2-8.2-4.1-16.4-6.1-24.6 C202.1,444,201.8,443.4,202.3,442.7z M212.4,485.1c-0.1,0-0.3,0-0.4,0c0,0.8,0,1.7,0,2.5c0.1,4.5-0.4,9.1,0.9,13.6 c0.5,1.7,1.5,2,2.7,1.7c1.4-0.2,0.8-1.4,0.6-2.2C215,495.5,213.7,490.3,212.4,485.1z"></path> <path class="st0" d="M172.9,468.3c0,0.4-0.2,1-0.8,1c-0.8,0-0.7-0.8-0.9-1.3c-1.4-5.5-2.8-10.9-4.2-16.4 c-7.3-29.3-14.5-58.6-21.8-88c-3.9-15.7-7.8-31.4-11.7-47.1c-0.1-0.5-0.2-1-0.3-1.5s-0.4-1,0.2-1.3c0.7-0.3,1.1,0.2,1.3,0.8 c0.4,1.4,0.7,2.9,1,4.4c4.3,17.2,8.5,34.3,12.8,51.5c4.5,18.2,9,36.4,13.5,54.6c3.4,13.8,6.8,27.5,10.3,41.3 C172.6,466.9,172.7,467.5,172.9,468.3z"></path> <path class="st0" d="M138.8,313.6c0.9,0.3,1,1.2,1.2,2c1.8,7.3,3.6,14.7,5.4,22c3.9,15.8,7.8,31.6,11.8,47.3 c4.7,18.8,9.3,37.7,14,56.5c2,8.1,4,16.3,6,24.4c0.1,0.3,0.2,0.6,0.3,1c0.1,0.6,0.3,1.3-0.4,1.5c-1.1,0.3-0.9-0.7-1.1-1.3 c-1.6-6.4-3.3-12.9-4.9-19.3c-5.6-22.5-11.2-45.1-16.7-67.6c-4.5-18.2-9-36.4-13.5-54.6c-0.9-3.5-1.7-6.9-2.5-10.4 C138.2,314.5,137.7,313.8,138.8,313.6z"></path> <path class="st0" d="M242,542.5c0-6.2,0-12.5,0-18.7c0-1.8,0.1-2.8,2.5-2.4c3.5,0.6,3.5,0.4,3.5,3.8c0,11.9,0,23.8,0,35.7 c0,1.9-0.4,2.8-2.5,2.5c-1.7-0.2-3.7,0.6-3.6-2.5C242.2,554.8,242,548.7,242,542.5z"></path> <path class="st0" d="M151.2,331.8c1.6,1.4,2.3,3.3,2.7,5.2c6.3,25.2,12.5,50.4,18.8,75.6c4.3,17.4,8.6,34.8,12.9,52.2 c0.7,2.7,1.3,5.5,1.9,8.2c0.2,0.9,1,2.4-0.1,2.6c-1.6,0.4-1.2-1.5-1.4-2.4c-4.9-19.5-9.7-39-14.6-58.5 c-5.1-20.6-10.2-41.3-15.3-61.9c-1.6-6.6-3.2-13.2-4.8-19.8C151.4,332.7,151.3,332.3,151.2,331.8z"></path> <path class="st0" d="M161.4,353.3c2.1,3.3,2.9,6.3,3.7,9.4c4.5,18.2,9,36.4,13.5,54.6c4.5,18.1,9,36.3,13.5,54.4 c0.1,0.2,0.2,0.5,0.2,0.7c0.1,0.9,0.7,2.5-0.3,2.7c-1.4,0.3-1.1-1.4-1.3-2.2c-9.6-38.4-19.1-76.8-28.6-115.3 C161.9,356.4,161.8,355.2,161.4,353.3z"></path> <path class="st0" d="M173,378.4c2.4,4,3.3,7.8,4.3,11.6c6.7,27.3,13.5,54.6,20.3,81.9c0.1,0.5,0.3,1,0.4,1.4c0.1,0.4,0,0.9-0.5,1 s-0.8-0.2-0.9-0.7c-0.4-1.5-0.8-3-1.2-4.6c-7.4-29.6-14.7-59.2-22.1-88.9C173.1,379.9,173.1,379.4,173,378.4z"></path> <path class="st0" d="M138.5,233.8c0,3.1-0.1,6.1,0,9.2c0,1.6-0.3,2.3-2.1,1.6c-3.9-1.4-3.9-1.3-3.9-5.5c0-5.6,0.1-11.3,0-16.9 c0-2.1,0.7-2.1,2.3-1.5c3.8,1.5,3.8,1.4,3.8,5.4C138.5,228.6,138.5,231.2,138.5,233.8z"></path> <path class="st0" d="M181.6,398c3.7,5.1,4.3,11.2,5.8,17c4,15.7,7.9,31.5,11.8,47.3c0.7,2.7,1.3,5.5,1.9,8.2 c0.2,0.9,1,2.3-0.1,2.6c-1.5,0.4-1.1-1.4-1.3-2.1c-5.1-20.4-10.2-40.9-15.2-61.3C183.5,405.9,182.6,402,181.6,398z"></path> <path class="st0" d="M191.6,419.4c1.6,2,2.2,4,2.7,5.9c3.8,15.2,7.5,30.4,11.2,45.6c0.2,0.6,0.9,1.6-0.2,1.8 c-1,0.2-1.1-0.9-1.2-1.5c-4.2-16.8-8.3-33.6-12.5-50.4C191.5,420.5,191.6,420.2,191.6,419.4z"></path> <path class="st0" d="M133.5,276.1c0,0.8,0.1,1.7,0,2.5c-0.1,0.6,0.5,1.8-0.8,1.6c-0.9-0.1-2.3,0-2.2-1.7c0.1-1.8,0-3.7,0-5.5 c0-0.8,0-1.6,1.1-1.5c0.9,0.1,1.9,0.3,1.9,1.5C133.5,274.1,133.5,275.1,133.5,276.1L133.5,276.1z"></path> <path class="st0" d="M222.9,487.5c0,0.1-0.1,0.1-0.1,0.2c0-0.1,0-0.3,0-0.4C222.8,487.4,222.8,487.5,222.9,487.5z"></path> </g> </g> </svg> 