<svg id="Layer_1" data-name="Layer 1" xmlns="http://www.w3.org/2000/svg" viewBox="0 0 440.91 206.64"><defs><style>.cls-1{fill:#707071;}.cls-2{fill:none;stroke:#707071;stroke-width:3px;}.cls-3{fill:#d5af34;}</style></defs><path d="M296.45,56H283.22l-6.77-27.11c-.1-.38-.22-.9-.35-1.58s-.3-1.44-.48-2.29-.35-1.75-.52-2.67-.34-1.83-.49-2.71-.28-1.69-.4-2.43S274,15.85,274,15.4c-.05.45-.13,1-.24,1.78s-.25,1.55-.4,2.41-.3,1.76-.47,2.69-.33,1.82-.49,2.67-.32,1.63-.47,2.33-.27,1.25-.37,1.65l-6.7,27H251.56L238.33,1h11.46L256,31c.07.4.18,1,.32,1.75s.29,1.62.46,2.58.36,2,.55,3,.37,2.09.55,3.09l.48,2.8c.15.86.27,1.57.34,2.12.08-.55.18-1.25.32-2.1s.28-1.76.43-2.73.32-2,.51-3,.36-2,.51-2.87.29-1.68.43-2.37.25-1.19.32-1.49L268.89,1h10.23l7.64,30.79c.07.3.18.8.31,1.49s.29,1.48.46,2.37.33,1.84.5,2.87.35,2,.51,3l.45,2.73c.14.85.25,1.55.32,2.1.08-.55.18-1.26.32-2.12s.3-1.8.47-2.8.36-2,.55-3.09.37-2,.54-3,.33-1.81.47-2.58.25-1.35.32-1.75l6.24-30h11.47Z"/><path d="M348,56l-3.76-13.09H325.26L321.46,56H309.69L327.55.77H341.8L359.74,56ZM341.5,33.11l-3.53-12c-.15-.46-.38-1.19-.68-2.22s-.62-2.16-1-3.41-.66-2.48-1-3.74-.51-2.31-.64-3.19q-.15.83-.39,2c-.17.75-.35,1.55-.57,2.39s-.43,1.69-.65,2.54-.44,1.65-.64,2.4-.39,1.42-.55,2l-.36,1.28-3.49,12Z"/><path d="M366.65,56V1h11.66V46.34h20V56Z"/><path d="M407.86,56V1h11.66V46.34h20V56Z"/><path d="M264.73,92.28a13.35,13.35,0,0,1-1,5.25,10.83,10.83,0,0,1-2.91,4,13.43,13.43,0,0,1-4.69,2.53,20.72,20.72,0,0,1-6.37.9,27.57,27.57,0,0,1-6.08-.66,21.84,21.84,0,0,1-5.42-2V93.77c.95.45,1.91.9,2.88,1.32s2,.81,3,1.14a23.84,23.84,0,0,0,3,.81,15.92,15.92,0,0,0,3,.29,8.63,8.63,0,0,0,2.6-.34,4.57,4.57,0,0,0,1.75-.95,3.5,3.5,0,0,0,1-1.45,5.34,5.34,0,0,0,.31-1.86,4.41,4.41,0,0,0-.51-2.15,6.77,6.77,0,0,0-1.46-1.76,14.6,14.6,0,0,0-2.26-1.58c-.88-.52-1.86-1.06-2.95-1.64-.91-.47-1.93-1-3.06-1.72a16.22,16.22,0,0,1-3.19-2.51,12.9,12.9,0,0,1-2.51-3.62,11.72,11.72,0,0,1-1-5.1,13.44,13.44,0,0,1,1-5.21,10.75,10.75,0,0,1,2.75-3.89,12.13,12.13,0,0,1,4.32-2.42,18.35,18.35,0,0,1,5.69-.83,22.08,22.08,0,0,1,3.07.21,25.16,25.16,0,0,1,3,.59c1,.26,2,.58,3,.95s2,.81,3.06,1.31l-3,7.16c-.9-.42-1.73-.79-2.5-1.1a20.46,20.46,0,0,0-2.26-.8,14.71,14.71,0,0,0-2.15-.49,13.67,13.67,0,0,0-2.12-.17A4.8,4.8,0,0,0,249,69.19a4.47,4.47,0,0,0-1.23,3.29,4.73,4.73,0,0,0,.37,1.94A4.61,4.61,0,0,0,249.34,76a12.44,12.44,0,0,0,2.1,1.51c.87.52,1.91,1.1,3.14,1.76q2.22,1.18,4.1,2.42a16.69,16.69,0,0,1,3.22,2.73,10.91,10.91,0,0,1,2.09,3.4A12.1,12.1,0,0,1,264.73,92.28Z"/><path d="M288.64,104.34h-9.18V68.59H268.57V60.92h30.94v7.67H288.64Z"/><path d="M315.4,87.68v16.66h-9.21V60.92h11.88q8.34,0,12.33,3.23c2.65,2.14,4,5.41,4,9.78a12.8,12.8,0,0,1-.59,4,12,12,0,0,1-1.59,3.22,12.24,12.24,0,0,1-2.29,2.47,14.43,14.43,0,0,1-2.71,1.76q3.3,5.3,5.91,9.45c.75,1.19,1.48,2.34,2.18,3.47l1.89,3c.55.89,1,1.61,1.36,2.14l.51.83H328.82l-9.41-16.66Zm0-7.48h2.49q3.84,0,5.5-1.53a5.84,5.84,0,0,0,1.66-4.5q0-3.09-1.78-4.4t-5.53-1.3H315.4Z"/><path d="M369.51,104.34h-25V60.92h25v7.55h-15.8V78h14.7v7.54h-14.7v11.2h15.8Z"/><path d="M403.57,104.34h-25V60.92h25v7.55h-15.8V78h14.7v7.54h-14.7v11.2h15.8Z"/><path d="M428.46,104.34h-9.18V68.59h-10.9V60.92h30.95v7.67H428.46Z"/><path class="cls-1" d="M262.05,151.09H238V109.4h24v7.24H246.87v9.15H261V133H246.87v10.75h15.18Z"/><path class="cls-1" d="M292.19,109.4h8.92l-13,41.69h-9.64l-13-41.69h8.92l7.07,25.09c.1.33.23.87.39,1.63s.33,1.59.51,2.51.36,1.82.53,2.74.3,1.68.4,2.3c.1-.62.23-1.39.4-2.3s.35-1.82.54-2.73.38-1.73.56-2.49.31-1.32.41-1.66Z"/><path class="cls-1" d="M330.37,151.09h-24V109.4h24v7.24H315.2v9.15h14.12V133H315.2v10.75h15.17Z"/><path class="cls-1" d="M374.29,151.09H363.08l-16.39-31.54h-.26c.11,1.46.21,2.92.28,4.36.08,1.24.14,2.54.19,3.89s.07,2.59.07,3.67v19.62h-7.9V109.4h11.15l16.37,31.22h.17c-.05-1.44-.12-2.87-.2-4.27,0-.61,0-1.23-.07-1.87s-.05-1.28-.07-1.91,0-1.25,0-1.84,0-1.12,0-1.6V109.4h7.93Z"/><path class="cls-1" d="M400,151.09H391.2V116.75H380.74V109.4h29.71v7.35H400Z"/><path class="cls-1" d="M439.71,139.51a12.86,12.86,0,0,1-.95,5,10.38,10.38,0,0,1-2.8,3.82,13,13,0,0,1-4.5,2.43,19.75,19.75,0,0,1-6.12.86,26.51,26.51,0,0,1-5.83-.63,21,21,0,0,1-5.21-1.88v-8.21c.91.44,1.84.86,2.77,1.27s1.88.77,2.84,1.09a21.93,21.93,0,0,0,2.88.77,14.68,14.68,0,0,0,2.86.29,8.37,8.37,0,0,0,2.5-.33,4.49,4.49,0,0,0,1.68-.91,3.5,3.5,0,0,0,.94-1.4,5.08,5.08,0,0,0,.3-1.78,4.23,4.23,0,0,0-.5-2.07,6.2,6.2,0,0,0-1.4-1.68,14.51,14.51,0,0,0-2.16-1.53c-.85-.49-1.8-1-2.84-1.57-.88-.45-1.85-1-2.94-1.65a15.58,15.58,0,0,1-3.06-2.41,12.25,12.25,0,0,1-2.41-3.48,11.25,11.25,0,0,1-1-4.89,13,13,0,0,1,.92-5,10.25,10.25,0,0,1,2.64-3.74,11.5,11.5,0,0,1,4.15-2.32,17.3,17.3,0,0,1,5.46-.8,20.39,20.39,0,0,1,3,.2,23.72,23.72,0,0,1,2.86.57,29,29,0,0,1,2.83.91c.95.36,1.93.78,2.94,1.25l-2.85,6.88c-.86-.4-1.66-.75-2.4-1.06s-1.46-.56-2.16-.77a17,17,0,0,0-2.07-.47,14,14,0,0,0-2-.15,4.62,4.62,0,0,0-3.41,1.18,4.25,4.25,0,0,0-1.18,3.15,4.76,4.76,0,0,0,.35,1.87,4.47,4.47,0,0,0,1.15,1.52,12.47,12.47,0,0,0,2,1.46c.83.49,1.83,1,3,1.68,1.42.76,2.74,1.54,3.93,2.32A16.11,16.11,0,0,1,437,132a10.84,10.84,0,0,1,2,3.26A11.88,11.88,0,0,1,439.71,139.51Z"/><path d="M111.17,119.12H93.46v30.5H63.16v-30.5H2.36V97.48l62.51-95H93.46V95h17.71ZM63.16,95V70c0-.87,0-2.13.05-3.77s.08-3.51.15-5.59.15-4.23.25-6.44.2-4.33.31-6.34.2-3.78.3-5.29.18-2.6.25-3.27h-.91q-1.8,4.23-4.07,9a99.42,99.42,0,0,1-5.19,9.46L29.74,95Z"/><path d="M168.46.55a66.1,66.1,0,0,1,17.31,2.21,44,44,0,0,1,14.29,6.65,32.85,32.85,0,0,1,9.76,11.07,32,32,0,0,1,3.63,15.6,34.19,34.19,0,0,1-2,12,35.2,35.2,0,0,1-5.54,9.76,41,41,0,0,1-8.36,7.8,79.44,79.44,0,0,1-10.46,6.25,121.59,121.59,0,0,1,11.42,6.94,55.81,55.81,0,0,1,9.92,8.61,39.87,39.87,0,0,1,6.94,10.72A32.52,32.52,0,0,1,218,111.47a37.39,37.39,0,0,1-3.63,16.61,36.33,36.33,0,0,1-10.16,12.68,47,47,0,0,1-15.65,8.06,68.05,68.05,0,0,1-20.08,2.81,75.21,75.21,0,0,1-21.14-2.71,45.26,45.26,0,0,1-15.6-7.75,32.44,32.44,0,0,1-9.62-12.38,40.18,40.18,0,0,1-3.27-16.51,39.21,39.21,0,0,1,2.22-13.59,38.54,38.54,0,0,1,6-10.87A45.22,45.22,0,0,1,136,79.26a72.16,72.16,0,0,1,11-6.54,82.38,82.38,0,0,1-9.27-6.79,44,44,0,0,1-7.49-8.16,38.54,38.54,0,0,1-5-9.91,36.85,36.85,0,0,1-1.86-12A31,31,0,0,1,127,20.53,33.53,33.53,0,0,1,137,9.46a44.42,44.42,0,0,1,14.39-6.7A65.32,65.32,0,0,1,168.46.55ZM147.62,110.47a20.16,20.16,0,0,0,1.31,7.4,15.58,15.58,0,0,0,3.87,5.78,18,18,0,0,0,6.39,3.78,26.6,26.6,0,0,0,8.86,1.36q10.57,0,15.81-5t5.23-13.13a16.22,16.22,0,0,0-1.76-7.6,27.14,27.14,0,0,0-4.53-6.24,40.92,40.92,0,0,0-6.29-5.29q-3.52-2.42-7-4.63l-2.21-1.41a60.81,60.81,0,0,0-8.06,4.79A33.06,33.06,0,0,0,153,95.92a23.91,23.91,0,0,0-4,6.7A21.43,21.43,0,0,0,147.62,110.47ZM168.25,23.3a18.65,18.65,0,0,0-6.19,1,14,14,0,0,0-4.93,2.91A13.79,13.79,0,0,0,153.86,32a15.82,15.82,0,0,0-1.21,6.34,19.13,19.13,0,0,0,1.26,7.29A18.3,18.3,0,0,0,157.33,51a25.75,25.75,0,0,0,5,4.23q2.87,1.86,6.09,3.67a59,59,0,0,0,5.93-3.52,26.62,26.62,0,0,0,5-4.38,20.28,20.28,0,0,0,3.47-5.59,18.37,18.37,0,0,0,1.31-7.14A16,16,0,0,0,183,32a13.51,13.51,0,0,0-3.32-4.74,14.49,14.49,0,0,0-5-2.91A19.44,19.44,0,0,0,168.25,23.3Z"/><line class="cls-2" x1="2.08" y1="167.87" x2="439.47" y2="167.87"/><path class="cls-3" d="M20.71,204.42h-5V194.27h-8v10.15h-5V180.91h5v9.22h8v-9.22h5Z"/><path class="cls-3" d="M35.44,204.42H24.75v-2.83l2.86-1.32V185.06l-2.86-1.32v-2.83H35.44v2.83l-2.86,1.32v15.21l2.86,1.32Z"/><path class="cls-3" d="M52.35,197.89a7.15,7.15,0,0,1-.54,2.84,5.93,5.93,0,0,1-1.58,2.16,7.28,7.28,0,0,1-2.54,1.37,11.32,11.32,0,0,1-3.45.48,14.87,14.87,0,0,1-3.29-.35A11.74,11.74,0,0,1,38,203.33V198.7c.51.24,1,.48,1.56.71s1.06.44,1.6.62a13.92,13.92,0,0,0,1.62.44,8.89,8.89,0,0,0,1.62.16,4.54,4.54,0,0,0,1.41-.19,2.53,2.53,0,0,0,1-.51,2,2,0,0,0,.53-.79,3,3,0,0,0,.16-1,2.34,2.34,0,0,0-.28-1.16,3.31,3.31,0,0,0-.79-.95,7.22,7.22,0,0,0-1.22-.86c-.47-.28-1-.57-1.6-.89s-1-.56-1.65-.93A8.49,8.49,0,0,1,40.2,192a6.85,6.85,0,0,1-1.36-2,6.29,6.29,0,0,1-.55-2.76,7.38,7.38,0,0,1,.52-2.82,5.91,5.91,0,0,1,1.49-2.11A6.5,6.5,0,0,1,42.64,181a9.92,9.92,0,0,1,3.08-.45,13.13,13.13,0,0,1,1.67.11A14.65,14.65,0,0,1,49,181a15.63,15.63,0,0,1,1.6.51c.54.2,1.09.44,1.66.71l-1.61,3.87c-.48-.22-.93-.42-1.35-.59a11.17,11.17,0,0,0-1.22-.43,8.91,8.91,0,0,0-1.17-.27,7.33,7.33,0,0,0-1.15-.09,2.6,2.6,0,0,0-1.92.67,2.42,2.42,0,0,0-.67,1.78,2.44,2.44,0,0,0,.85,1.91,6.75,6.75,0,0,0,1.14.82c.47.28,1,.6,1.7.95s1.54.86,2.22,1.31a9.05,9.05,0,0,1,1.74,1.48A6,6,0,0,1,52,195.48,6.8,6.8,0,0,1,52.35,197.89Z"/><path class="cls-3" d="M65.29,204.42h-5V185.06h-5.9v-4.15H71.18v4.15H65.29Z"/><path class="cls-3" d="M94.84,192.63a17.85,17.85,0,0,1-.64,5,10.64,10.64,0,0,1-1.93,3.83A8.72,8.72,0,0,1,89,203.88a13.22,13.22,0,0,1-9.38,0,8.61,8.61,0,0,1-3.28-2.46,10.6,10.6,0,0,1-1.93-3.84,18.43,18.43,0,0,1-.64-5,18.23,18.23,0,0,1,.64-5,10.28,10.28,0,0,1,1.94-3.8,8.6,8.6,0,0,1,3.29-2.44,13.22,13.22,0,0,1,9.38,0,8.53,8.53,0,0,1,3.27,2.44,10.35,10.35,0,0,1,1.93,3.82A17.82,17.82,0,0,1,94.84,192.63Zm-16,0a15.33,15.33,0,0,0,.33,3.33,7.41,7.41,0,0,0,1,2.49A4.69,4.69,0,0,0,81.88,200a5,5,0,0,0,2.41.54,5.18,5.18,0,0,0,2.45-.54,4.48,4.48,0,0,0,1.67-1.57,7.4,7.4,0,0,0,1-2.49,18,18,0,0,0,0-6.65,7.55,7.55,0,0,0-1-2.5,4.45,4.45,0,0,0-1.66-1.57,5,5,0,0,0-2.43-.55,5.07,5.07,0,0,0-2.43.55,4.64,4.64,0,0,0-1.7,1.57,7.55,7.55,0,0,0-1,2.5A15.23,15.23,0,0,0,78.88,192.63Z"/><path class="cls-3" d="M104.68,195.4v9h-5V180.91h6.43c3,0,5.24.58,6.67,1.74A6.42,6.42,0,0,1,115,188a7.1,7.1,0,0,1-.32,2.19,6.64,6.64,0,0,1-.86,1.75,6.84,6.84,0,0,1-1.24,1.33,8.42,8.42,0,0,1-1.47,1c1.19,1.91,2.25,3.61,3.2,5.11.4.65.8,1.27,1.18,1.88l1,1.64c.3.49.55.87.74,1.16l.27.45H112l-5.1-9Zm0-4.05H106a4.35,4.35,0,0,0,3-.83,3.14,3.14,0,0,0,.9-2.44,2.74,2.74,0,0,0-1-2.38,5.09,5.09,0,0,0-3-.71h-1.27Z"/><path class="cls-3" d="M129.24,204.42H118.55v-2.83l2.86-1.32V185.06l-2.86-1.32v-2.83h10.69v2.83l-2.86,1.32v15.21l2.86,1.32Z"/><path class="cls-3" d="M143.25,184.72a5.51,5.51,0,0,0-2.53.56,5,5,0,0,0-1.85,1.59,7.5,7.5,0,0,0-1.14,2.52,13.22,13.22,0,0,0-.38,3.34,14.7,14.7,0,0,0,.34,3.35,7.15,7.15,0,0,0,1.06,2.47,4.7,4.7,0,0,0,1.84,1.52,6.19,6.19,0,0,0,2.66.52,12.82,12.82,0,0,0,2.87-.32,28.2,28.2,0,0,0,3.13-.91v4.18c-.52.21-1,.4-1.53.55a15.7,15.7,0,0,1-1.54.37q-.8.14-1.62.21c-.55.05-1.15.07-1.78.07a11.72,11.72,0,0,1-4.71-.86,8.76,8.76,0,0,1-3.3-2.45,10.22,10.22,0,0,1-1.93-3.79,18.1,18.1,0,0,1-.62-4.94,15.89,15.89,0,0,1,.72-4.9,11,11,0,0,1,2.12-3.84,9.72,9.72,0,0,1,3.46-2.5,11.88,11.88,0,0,1,4.73-.89,14.55,14.55,0,0,1,3.51.44,17.57,17.57,0,0,1,3.37,1.22l-1.61,4.05a26,26,0,0,0-2.65-1.09A7.93,7.93,0,0,0,143.25,184.72Z"/><path class="cls-3" d="M174.9,180.91h5l-7.33,23.51h-5.44l-7.31-23.51h5l4,14.15c0,.19.12.49.22.92s.18.9.29,1.41.2,1,.29,1.55.17.95.23,1.3c0-.35.13-.79.22-1.3s.2-1,.31-1.54.21-1,.31-1.4.18-.74.24-.94Z"/><path class="cls-3" d="M196.44,204.42H182.89V180.91h13.55V185h-8.56v5.17h8v4.08h-8v6.07h8.56Z"/><path class="cls-3" d="M221.2,204.42h-6.32l-9.25-17.79h-.14c.06.83.12,1.65.16,2.47s.08,1.42.11,2.19,0,1.46,0,2.07v11.06h-4.46V180.91h6.29l9.23,17.61h.1c0-.81-.07-1.62-.12-2.41,0-.35,0-.7,0-1.06s0-.71,0-1.07,0-.71,0-1,0-.63,0-.9V180.91h4.47Z"/><path class="cls-3" d="M245,180.91v15.21a10.16,10.16,0,0,1-.56,3.41,7.23,7.23,0,0,1-1.69,2.74,7.89,7.89,0,0,1-2.83,1.82,11.35,11.35,0,0,1-4,.65,11.05,11.05,0,0,1-3.84-.61,7.58,7.58,0,0,1-2.78-1.77,7.45,7.45,0,0,1-1.69-2.74,10.27,10.27,0,0,1-.58-3.56V180.91h5v14.78a8.52,8.52,0,0,0,.25,2.23,4,4,0,0,0,.77,1.51,3,3,0,0,0,1.26.86,5.23,5.23,0,0,0,1.77.27,3.6,3.6,0,0,0,3.05-1.22,6,6,0,0,0,.94-3.68V180.91Z"/><path class="cls-3" d="M264.26,204.42H250.72V180.91h13.54V185H255.7v5.17h8v4.08h-8v6.07h8.56Z"/><path class="cls-3" d="M277.72,204.42V180.91h5v19.4h8.56v4.11Z"/><path class="cls-3" d="M315.39,192.63a18.23,18.23,0,0,1-.64,5,10.49,10.49,0,0,1-1.94,3.83,8.65,8.65,0,0,1-3.29,2.46,13.19,13.19,0,0,1-9.37,0,8.54,8.54,0,0,1-3.28-2.46,10.45,10.45,0,0,1-1.93-3.84,18,18,0,0,1-.64-5,17.85,17.85,0,0,1,.64-5,10.41,10.41,0,0,1,1.93-3.8,8.68,8.68,0,0,1,3.29-2.44,11.86,11.86,0,0,1,4.71-.86,11.74,11.74,0,0,1,4.68.86,8.53,8.53,0,0,1,3.27,2.44,10.51,10.51,0,0,1,1.93,3.82A18.2,18.2,0,0,1,315.39,192.63Zm-16,0a16,16,0,0,0,.32,3.33,7.63,7.63,0,0,0,1,2.49,4.75,4.75,0,0,0,1.68,1.57,5.07,5.07,0,0,0,2.41.54,5.2,5.2,0,0,0,2.46-.54,4.48,4.48,0,0,0,1.67-1.57,7.4,7.4,0,0,0,1-2.49,17.43,17.43,0,0,0,0-6.65,7.54,7.54,0,0,0-1-2.5,4.45,4.45,0,0,0-1.66-1.57,5.64,5.64,0,0,0-4.86,0,4.56,4.56,0,0,0-1.7,1.57,7.78,7.78,0,0,0-1,2.5A15.92,15.92,0,0,0,299.43,192.63Z"/><path class="cls-3" d="M330.23,184.72a5.54,5.54,0,0,0-2.53.56,5,5,0,0,0-1.85,1.59,7.5,7.5,0,0,0-1.14,2.52,13.69,13.69,0,0,0-.38,3.34,14.7,14.7,0,0,0,.34,3.35,7.15,7.15,0,0,0,1.06,2.47,4.7,4.7,0,0,0,1.84,1.52,6.19,6.19,0,0,0,2.66.52,12.82,12.82,0,0,0,2.87-.32,28.2,28.2,0,0,0,3.13-.91v4.18c-.52.21-1,.4-1.53.55a15.7,15.7,0,0,1-1.54.37q-.8.14-1.62.21c-.55.05-1.14.07-1.78.07a11.72,11.72,0,0,1-4.71-.86,8.76,8.76,0,0,1-3.3-2.45,10.37,10.37,0,0,1-1.93-3.79,18.5,18.5,0,0,1-.62-4.94,15.89,15.89,0,0,1,.72-4.9A11,11,0,0,1,322,184a9.72,9.72,0,0,1,3.46-2.5,11.88,11.88,0,0,1,4.73-.89,14.55,14.55,0,0,1,3.51.44,17.57,17.57,0,0,1,3.37,1.22l-1.61,4.05a25.05,25.05,0,0,0-2.65-1.09A7.93,7.93,0,0,0,330.23,184.72Z"/><path class="cls-3" d="M354.64,204.42l-1.6-5.59h-8.11l-1.62,5.59h-5l7.64-23.61H352l7.67,23.61Zm-2.76-9.78-1.51-5.14c-.07-.2-.17-.51-.29-.95s-.27-.93-.41-1.46-.29-1.06-.41-1.6-.22-1-.28-1.36c0,.23-.1.51-.17.83s-.15.67-.24,1-.18.73-.28,1.09-.19.71-.27,1l-.24.85-.15.55-1.49,5.14Z"/><path class="cls-3" d="M371.21,204.42h-5V185.06h-5.9v-4.15H377.1v4.15h-5.89Z"/><path class="cls-3" d="M389.51,204.42H378.82v-2.83l2.86-1.32V185.06l-2.86-1.32v-2.83h10.69v2.83l-2.86,1.32v15.21l2.86,1.32Z"/><path class="cls-3" d="M413.57,192.63a18.24,18.24,0,0,1-.63,5,10.65,10.65,0,0,1-1.94,3.83,8.72,8.72,0,0,1-3.29,2.46,13.22,13.22,0,0,1-9.38,0,8.69,8.69,0,0,1-3.28-2.46,10.76,10.76,0,0,1-1.93-3.84,18.44,18.44,0,0,1-.63-5,18.24,18.24,0,0,1,.63-5,10.43,10.43,0,0,1,1.94-3.8,8.68,8.68,0,0,1,3.29-2.44,11.81,11.81,0,0,1,4.7-.86,11.67,11.67,0,0,1,4.68.86,8.64,8.64,0,0,1,3.28,2.44,10.67,10.67,0,0,1,1.93,3.82A18.21,18.21,0,0,1,413.57,192.63Zm-15.95,0a16,16,0,0,0,.32,3.33,7.21,7.21,0,0,0,1,2.49,4.59,4.59,0,0,0,1.68,1.57,5,5,0,0,0,2.41.54,5.22,5.22,0,0,0,2.46-.54,4.56,4.56,0,0,0,1.67-1.57,7.61,7.61,0,0,0,1-2.49,17.43,17.43,0,0,0,0-6.65,7.76,7.76,0,0,0-1-2.5,4.48,4.48,0,0,0-1.67-1.57,5.62,5.62,0,0,0-4.85,0,4.49,4.49,0,0,0-1.7,1.57,7.35,7.35,0,0,0-1,2.5A15.92,15.92,0,0,0,397.62,192.63Z"/><path class="cls-3" d="M438.29,204.42H432l-9.25-17.79h-.14c.06.83.12,1.65.16,2.47s.08,1.42.1,2.19,0,1.46,0,2.07v11.06h-4.45V180.91h6.29L434,198.52h.1c0-.81-.07-1.62-.12-2.41,0-.35,0-.7,0-1.06s0-.71,0-1.07,0-.71,0-1,0-.63,0-.9V180.91h4.47Z"/></svg>