<?xml version="1.0" encoding="UTF-8"?>
<svg id="Layer_1" data-name="Layer 1" xmlns="http://www.w3.org/2000/svg" viewBox="0 0 792 612">
  <defs>
    <style>
      .cls-1 {
        stroke: #989798;
      }

      .cls-1, .cls-2, .cls-3, .cls-4, .cls-5, .cls-6 {
        fill: none;
      }

      .cls-1, .cls-3, .cls-5, .cls-6 {
        stroke-linecap: round;
        stroke-linejoin: round;
      }

      .cls-1, .cls-4, .cls-5, .cls-6 {
        stroke-width: 2px;
      }

      .cls-7, .cls-8, .cls-9 {
        fill: #010101;
      }

      .cls-10 {
        letter-spacing: 0em;
      }

      .cls-10, .cls-11, .cls-12, .cls-13, .cls-14 {
        font-family: MyriadPro-Regular, 'Myriad Pro';
      }

      .cls-8 {
        font-size: 17.7px;
      }

      .cls-8, .cls-15, .cls-9 {
        isolation: isolate;
      }

      .cls-11 {
        letter-spacing: 0em;
      }

      .cls-2 {
        stroke-width: .5px;
      }

      .cls-2, .cls-4 {
        stroke-miterlimit: 10;
      }

      .cls-2, .cls-4, .cls-5 {
        stroke: #010101;
      }

      .cls-16 {
        font-family: ArialHebrew-Light, 'Arial Hebrew';
        font-weight: 300;
      }

      .cls-9 {
        font-size: 14.6px;
      }

      .cls-17 {
        fill: #fff;
      }

      .cls-3 {
        stroke: #231f20;
        stroke-width: .75px;
      }

      .cls-18 {
        fill: #0f0f0f;
        fill-rule: evenodd;
      }

      .cls-6 {
        stroke: #0f0f0f;
      }

      .cls-13 {
        letter-spacing: .02em;
      }

      .cls-14 {
        letter-spacing: .02em;
      }
    </style>
  </defs>
  <rect class="cls-17" width="792" height="612"/>
  <line class="cls-4" x1="69.45" y1="256.65" x2="69.45" y2="250.18"/>
  <line class="cls-6" x1="96.97" y1="345.82" x2="72.69" y2="345.82"/>
  <line class="cls-4" x1="93.68" y1="349.1" x2="69.45" y2="349.1"/>
  <line class="cls-6" x1="407.75" y1="345.82" x2="326.77" y2="345.82"/>
  <line class="cls-4" x1="404.51" y1="349.1" x2="330.05" y2="349.1"/>
  <polyline class="cls-6" points="96.97 345.82 96.97 423.56 75.93 423.56"/>
  <polyline class="cls-4" points="93.68 349.1 93.68 420.28 19.27 420.28 19.27 402.52"/>
  <polyline class="cls-6" points="407.75 345.82 407.75 423.56 386.66 423.56"/>
  <polyline class="cls-6" points="37.08 423.56 16.04 423.56 16.04 405.71"/>
  <polyline class="cls-6" points="37.08 423.56 37.08 428.37 75.93 428.37 75.93 423.56"/>
  <polyline class="cls-4" points="404.51 349.1 404.51 420.28 330.05 420.28"/>
  <path class="cls-6" d="M326.77,423.56v-77.69M286.35,408.76v17.57M137.43,408.76v17.57M137.43,426.33l6.47,2.5,6.57,2.31,6.61,2.08,6.71,1.9,6.71,1.62,6.8,1.39,6.89,1.11,6.89.83,6.89.65,6.89.37,6.89.09,6.89-.09,6.89-.37,6.89-.65,6.89-.83,6.89-1.11,6.8-1.39,6.71-1.62,6.71-1.9,6.61-2.08,6.57-2.31,6.47-2.5M153.57,412l5.5,2.45,5.6,2.22,5.69,1.94,5.78,1.71,5.83,1.43,5.87,1.16,5.97.92,5.97.65,6.01.37,6.01.14,6.01-.14,6.01-.37,5.97-.65,5.97-.92,5.87-1.16,5.83-1.43,5.78-1.71,5.69-1.94,5.6-2.22,5.5-2.45M270.16,408.76v3.24M153.57,408.76v3.24M658.59,423.56h-21.04M658.59,423.56v4.86h38.85M347.81,423.56h-21.04M347.81,423.56v4.86h38.85v-4.86"/>
  <line class="cls-4" x1="330.05" y1="420.28" x2="330.05" y2="349.1"/>
  <line class="cls-6" x1="637.59" y1="423.56" x2="637.59" y2="346.51"/>
  <line class="cls-4" x1="762.18" y1="396" x2="695.03" y2="396"/>
  <line class="cls-4" x1="69.45" y1="256.65" x2="69.45" y2="349.1"/>
  <line class="cls-4" x1="43.55" y1="256.65" x2="43.55" y2="349.1"/>
  <path class="cls-6" d="M40.31,250.18v94.81c-7.54,2.17-16.19,0-23.68.92"/>
  <line class="cls-6" x1="72.69" y1="250.18" x2="72.69" y2="345.82"/>
  <line class="cls-4" x1="43.55" y1="349.1" x2="19.27" y2="349.1"/>
  <path class="cls-4" d="M695.03,357.2h-41.3v48.56h41.3v-48.56ZM694.2,368.48h-14.57v25.9h14.57v3.24h-32.37v-3.24h14.57v-25.9h-14.57v-3.24h32.37v3.24Z"/>
  <path class="cls-4" d="M32.22,405.71h48.56v-48.56h-48.56v48.56ZM40.31,394.42h14.57v-25.9h-14.57v-3.24h32.37v3.24h-14.57v25.9h14.57v3.24h-32.37v-3.24Z"/>
  <path class="cls-4" d="M342.95,405.71h48.56v-48.56h-48.56v48.56ZM351.09,394.42h14.57v-25.9h-14.57v-3.24h32.37v3.24h-14.57v25.9h14.57v3.24h-32.37v-3.24Z"/>
  <line class="cls-4" x1="319.55" y1="170.82" x2="364" y2="170.82"/>
  <line class="cls-4" x1="216.75" y1="177.29" x2="319.55" y2="177.29"/>
  <line class="cls-4" x1="164.16" y1="177.29" x2="57.98" y2="177.29"/>
  <line class="cls-4" x1="474.9" y1="170.82" x2="525.91" y2="170.82"/>
  <line class="cls-4" x1="364" y1="170.82" x2="474.9" y2="170.82"/>
  <line class="cls-4" x1="319.55" y1="177.29" x2="474.9" y2="177.29"/>
  <line class="cls-4" x1="630.33" y1="170.82" x2="674.78" y2="170.82"/>
  <line class="cls-4" x1="525.91" y1="170.82" x2="630.33" y2="170.82"/>
  <line class="cls-4" x1="474.9" y1="177.29" x2="630.33" y2="177.29"/>
  <line class="cls-4" x1="164.16" y1="170.82" x2="319.55" y2="170.82"/>
  <line class="cls-4" x1="674.04" y1="177.29" x2="630.33" y2="177.29"/>
  <line class="cls-4" x1="164.16" y1="177.29" x2="319.55" y2="177.29"/>
  <line class="cls-4" x1="49.89" y1="170.82" x2="164.16" y2="170.82"/>
  <line class="cls-4" x1="69.45" y1="256.65" x2="40.31" y2="256.65"/>
  <line class="cls-6" x1="40.31" y1="250.18" x2="72.69" y2="250.18"/>
  <line class="cls-4" x1="674.04" y1="253.37" x2="674.04" y2="239.68"/>
  <polyline class="cls-4" points="695.03 349.7 686.11 349.7 686.11 331.11 674.04 331.11 674.04 344.01 651.38 344.01 651.38 349.7"/>
  <line class="cls-4" x1="695.03" y1="396" x2="695.03" y2="369.17"/>
  <line class="cls-4" x1="774.39" y1="362.7" x2="695.03" y2="362.7"/>
  <polyline class="cls-4" points="686.11 246.16 686.11 239.68 674.04 239.68 674.04 273.63 686.11 273.63 686.11 258.27 700.67 258.27"/>
  <line class="cls-6" x1="651.38" y1="346.51" x2="637.59" y2="346.51"/>
  <path class="cls-4" d="M695.03,362.7v-12.95M762.18,369.17h-67.15"/>
  <path class="cls-4" d="M640.78,420.28h70.43v-15.54M711.27,404.78h63.13M651.38,349.7h-10.54"/>
  <path class="cls-6" d="M697.44,428.37v-4.86h17.07v-14.75M714.5,420.09v-.09M775.96,408.76h-61.51"/>
  <path class="cls-4" d="M686.11,239.68v-57.48h-2.77v57.48h2.77ZM686.11,349.7v-10.08h10.17v10.08h-10.17ZM718.48,340.04l-.09-.79-.37-.65-.51-.51-.65-.37-.79-.14-.79.14-.65.37-.51.51-.37.65-.14.79.14.69.37.69.51.51.65.37.79.09.79-.09.65-.37.51-.51.37-.69.09-.69ZM700.3,342.91v-10.17h10.08v10.17h-10.08ZM265.26,408.76v-4.02h61.51v4.02h-61.51ZM96.97,408.76v-4.02h61.51v4.02h-61.51ZM576.04,408.76v-4.02h61.51v4.02h-61.51ZM407.75,408.76v-4.02h61.51v4.02h-61.51Z"/>
  <path class="cls-4" d="M708.31,336.01l-.14-.65-.32-.51-.51-.32-.65-.14-.6.14-.51.32-.37.51-.14.65.14.65.37.51.51.32.6.14.65-.14.51-.32.32-.51.14-.65ZM704,336.01l-.14-.65-.32-.51-.51-.32-.65-.14-.6.14-.51.32-.37.51-.14.65.14.65.37.51.51.32.6.14.65-.14.51-.32.32-.51.14-.65ZM693.23,344.71l-.14-.79-.32-.65-.51-.51-.69-.37-.79-.09-.69.09-.69.37-.51.51-.32.65-.14.79.14.79.32.65.51.51.69.37.69.14.79-.14.69-.37.51-.51.32-.65.14-.79Z"/>
  <path class="cls-6" d="M676.07,329.91l-2.08,1.16-28.77-49.72,2.08-1.2,28.77,49.81h0v-.05ZM674.04,273.63l-3.88.14-3.88.37-3.79.65-3.79.92-3.7,1.16-3.7,1.43-3.51,1.71-3.42,1.94-3.24,2.08"/>
  <path class="cls-5" d="M691.01,306.97l19.42,19.42M700.67,302.9l19.42,19.42M691.01,258.27v48.7M700.67,258.27v44.67"/>
  <path class="cls-2" d="M718.66,362.7l1.48-1.57M716.35,362.7l3.79-3.79M713.99,362.7l6.1-6.1M711.77,362.7l8.37-8.42M710.39,361.68l9.71-9.71M710.39,359.46l9.71-9.71M710.39,357.1l9.71-9.71M710.39,354.88l9.71-9.71M710.39,352.57l9.71-9.71M710.39,350.26l9.71-9.71M718.48,339.9l1.62-1.62M710.39,347.99l5.6-5.6M717.88,338.28l2.27-2.31M710.39,345.68l4.02-3.98M716.26,337.54l3.88-3.88M710.39,343.41l3.28-3.24M710.39,341.1l9.71-9.71M710.39,338.79l9.71-9.71M710.39,336.52l9.71-9.71M710.39,334.26l9.71-9.71M710.39,331.94l9.67-9.67M710.39,329.63l8.56-8.46M710.39,327.41l7.4-7.4M709.79,325.7l6.89-6.89M708.68,324.64l6.89-6.89M707.47,323.44l6.89-6.89M706.32,322.28l6.89-6.89M705.21,321.17l6.89-6.89M704.05,320.01l6.89-6.89M702.89,318.86l6.89-6.89M701.78,317.75l6.89-6.89M700.63,316.59l6.89-6.89M699.47,315.43l6.89-6.89M698.36,314.32l6.89-6.89M697.21,313.17l6.89-6.89M696,311.97l6.89-6.89M694.94,310.86l6.89-6.89M693.74,309.75l6.89-6.98M692.63,308.54l8.09-8.09M691.52,307.48l9.2-9.25M691.01,305.58l9.71-9.71M691.01,303.32l9.71-9.71M691.01,301.05l9.71-9.71M691.01,298.69l9.71-9.71M691.01,296.47l9.71-9.71M691.01,294.11l9.71-9.71M691.01,291.85l9.71-9.71M691.01,289.58l9.71-9.71M691.01,287.27l9.71-9.71M691.01,285l9.71-9.71M691.01,282.74l9.71-9.71M691.01,280.38l9.71-9.71M691.01,278.11l9.71-9.71M691.01,275.85l9.71-9.71M691.01,273.53l9.71-9.71M691.01,271.27l9.71-9.71M691.01,269l9.71-9.71M691.01,266.64l8.42-8.42M691.01,264.42l6.15-6.15M691.01,262.07l3.88-3.79M691.01,259.8l1.57-1.57"/>
  <path class="cls-5" d="M49.89,185.3h8.09M49.89,243.57h8.09"/>
  <path class="cls-5" d="M49.89,185.3v-14.48M49.89,243.57v6.61M57.98,185.3v-7.95M57.98,243.57v6.61"/>
  <path class="cls-1" d="M49.89,243.94l.32-.37"/>
  <polyline class="cls-6" points="464.4 412 469.9 414.5 475.5 416.67 481.19 418.61 486.97 420.28 492.79 421.76 498.67 422.87 504.63 423.79 510.6 424.44 516.61 424.85 522.62 424.95 528.68 424.85 534.69 424.44 540.66 423.79 546.58 422.87 552.5 421.76 558.33 420.28 564.15 418.61 569.84 416.67 575.44 414.5 580.9 412"/>
  <line class="cls-6" x1="580.9" y1="408.76" x2="580.9" y2="412"/>
  <line class="cls-6" x1="464.4" y1="408.76" x2="464.4" y2="412"/>
  <path class="cls-6" d="M159.54,406.68l-1.11-1.94,46.29-26.73,1.11,1.94-46.29,26.73ZM211.89,404.78l-.14-3.61-.37-3.61-.6-3.56-.83-3.51-1.11-3.51-1.29-3.38-1.57-3.24-1.8-3.19-1.94-3.01M264.2,406.68l1.11-1.94-46.2-26.73-1.16,1.94,46.29,26.73h-.05ZM211.89,404.78l.14-3.61.37-3.61.6-3.56.83-3.51,1.11-3.51,1.39-3.38,1.48-3.24,1.8-3.19,1.94-3.01M470.32,406.68l-1.11-1.94,46.29-26.73,1.11,1.94-46.29,26.73ZM522.62,404.78l-.14-3.61-.32-3.61-.65-3.56-.83-3.51-1.11-3.51-1.29-3.38-1.57-3.24-1.8-3.19-1.94-3.01M574.93,406.68l1.11-1.94-46.2-26.73-1.16,1.94,46.29,26.73h-.05ZM522.62,404.78l.14-3.61.37-3.61.6-3.56.83-3.51,1.11-3.51,1.39-3.38,1.57-3.24,1.76-3.19,1.94-3.01"/>
  <polyline class="cls-18" points="688.84 216.84 688.33 216.33 684.03 221.74"/>
  <g>
    <line class="cls-3" x1="57.98" y1="183.77" x2="57.98" y2="243.94"/>
    <line class="cls-3" x1="49.89" y1="184.05" x2="49.89" y2="244.26"/>
    <line class="cls-3" x1="49.89" y1="238.99" x2="51.92" y2="241.07"/>
    <line class="cls-3" x1="49.89" y1="236.68" x2="54.28" y2="241.07"/>
    <line class="cls-3" x1="49.89" y1="234.41" x2="56.5" y2="241.07"/>
    <line class="cls-3" x1="49.89" y1="232.1" x2="56.46" y2="238.71"/>
    <line class="cls-3" x1="49.89" y1="229.83" x2="57.29" y2="237.32"/>
    <line class="cls-3" x1="49.89" y1="227.52" x2="57.98" y2="235.7"/>
    <line class="cls-3" x1="49.89" y1="225.21" x2="57.98" y2="233.35"/>
    <line class="cls-3" x1="49.89" y1="222.94" x2="57.98" y2="231.13"/>
    <line class="cls-3" x1="49.89" y1="220.67" x2="57.98" y2="228.81"/>
    <line class="cls-3" x1="49.89" y1="218.36" x2="57.98" y2="226.5"/>
    <line class="cls-3" x1="49.89" y1="216.05" x2="57.98" y2="224.24"/>
    <line class="cls-3" x1="49.89" y1="213.83" x2="57.98" y2="221.97"/>
    <line class="cls-3" x1="49.89" y1="211.47" x2="57.98" y2="219.66"/>
    <line class="cls-3" x1="49.89" y1="209.25" x2="57.98" y2="217.39"/>
    <line class="cls-3" x1="49.89" y1="206.94" x2="57.98" y2="215.12"/>
    <line class="cls-3" x1="49.89" y1="204.63" x2="57.98" y2="212.77"/>
    <line class="cls-3" x1="49.89" y1="202.36" x2="57.98" y2="210.55"/>
    <line class="cls-3" x1="49.89" y1="200.09" x2="57.98" y2="208.28"/>
    <line class="cls-3" x1="49.89" y1="197.78" x2="57.98" y2="205.92"/>
    <line class="cls-3" x1="49.89" y1="195.52" x2="57.98" y2="203.66"/>
    <line class="cls-3" x1="49.89" y1="193.16" x2="57.98" y2="201.39"/>
    <line class="cls-3" x1="49.89" y1="190.89" x2="57.98" y2="199.08"/>
    <line class="cls-3" x1="49.89" y1="188.63" x2="57.98" y2="196.81"/>
    <line class="cls-3" x1="49.89" y1="186.31" x2="57.98" y2="194.45"/>
    <line class="cls-3" x1="49.89" y1="184.05" x2="57.98" y2="192.19"/>
    <line class="cls-3" x1="52.11" y1="184.05" x2="57.98" y2="189.92"/>
    <line class="cls-3" x1="54.37" y1="184.05" x2="57.98" y2="187.61"/>
    <line class="cls-3" x1="56.69" y1="184.05" x2="57.98" y2="185.34"/>
  </g>
  <g>
    <path class="cls-7" d="M247.36,234.83h19.75l.19,5.92h-.83c-.42-1.85-.92-3.1-1.57-3.65-.65-.55-1.94-.83-3.98-.83h-1.94v17.9c0,1.34.19,2.17.65,2.5.42.32,1.34.55,2.77.65v.65h-10.17v-.65c1.48-.09,2.4-.37,2.77-.74.37-.37.55-1.29.55-2.82v-17.48h-1.94c-1.94,0-3.24.28-3.93.83s-1.2,1.76-1.57,3.65h-.83l.19-5.92h-.09Z"/>
    <path class="cls-7" d="M268.59,257.3c1.34-.14,2.22-.42,2.54-.74.32-.37.51-1.29.51-2.77v-15.12c0-1.25-.19-2.08-.55-2.45s-1.2-.6-2.5-.69v-.65h9.67v.65c-1.29.09-2.13.32-2.5.69-.37.37-.55,1.2-.55,2.45v6.8h10.59v-6.8c0-1.25-.19-2.08-.55-2.45s-1.2-.6-2.5-.69v-.65h9.71v.65c-1.29.09-2.13.32-2.5.69-.37.37-.55,1.2-.55,2.45v15.54c0,1.25.19,2.08.55,2.45s1.2.6,2.5.69v.65h-9.71v-.65c1.39-.14,2.22-.37,2.59-.74.32-.37.51-1.29.51-2.82v-6.8h-10.59v7.21c0,1.25.19,2.08.55,2.45s1.2.6,2.5.69v.65h-9.67v-.65l-.05-.05Z"/>
    <path class="cls-7" d="M293.61,257.3c1.29-.14,2.13-.37,2.5-.69.37-.32.55-1.16.55-2.45v-15.54c0-1.25-.19-2.03-.55-2.45-.37-.37-1.2-.6-2.5-.69v-.65h18.55l.14,4.99h-.88c-.28-1.53-.74-2.54-1.34-3.01s-1.9-.69-3.98-.69h-4.76c-.51,0-.83.09-.97.23-.14.18-.19.46-.19.92v7.82h5.41c1.48,0,2.45-.23,2.87-.65.42-.46.74-1.34.97-2.68h.83v8.09h-.83c-.28-1.34-.6-2.27-1.02-2.68-.42-.42-1.34-.65-2.82-.65h-5.41v8.65c0,.69.23,1.11.65,1.25.42.14,1.76.18,3.93.18,2.36,0,4.12-.28,5.23-.79s2.13-1.76,3.05-3.75h.97l-1.57,5.92h-18.87v-.65l.05-.05Z"/>
    <path class="cls-7" d="M323.95,257.3c1.39-.09,2.31-.28,2.73-.65s.6-1.2.6-2.5v-15.54c0-1.29-.19-2.13-.6-2.5s-1.34-.6-2.73-.65v-.65h9.8c2.77,0,4.99.46,6.66,1.34,1.66.88,2.45,2.45,2.45,4.62,0,1.66-.55,2.91-1.71,3.75-.65.51-1.62.88-2.91,1.2,1.62.37,2.96,1.02,4.12,1.94s1.71,2.17,1.71,3.79c0,2.73-1.25,4.62-3.79,5.64-1.34.55-2.96.79-4.9.79h-11.38v-.65l-.05.05ZM337.08,244.63c1.48-.69,2.22-1.9,2.22-3.65,0-2.08-.83-3.47-2.54-4.21-.92-.42-2.36-.6-4.3-.6-.74,0-1.16.05-1.34.18s-.28.46-.28,1.02v7.91h3.33c1.16-.09,2.13-.28,2.91-.6v-.05ZM338.19,255.64c1.2-.69,1.8-2.03,1.8-3.98s-.69-3.28-2.13-4.02c-1.39-.74-3.19-1.06-5.41-1.06h-1.66v8.69c0,.6.19.97.51,1.16.32.18,1.16.28,2.36.28,1.8,0,3.28-.37,4.49-1.06h.05Z"/>
    <path class="cls-7" d="M347.12,257.95v-.65c.88-.09,1.57-.46,2.03-1.02s1.2-2.13,2.31-4.72l7.26-17.16h.69l8.69,19.79c.55,1.29,1.06,2.13,1.39,2.45.37.32.92.51,1.76.65v.65h-8.88v-.65c1.02-.09,1.66-.18,1.99-.32.28-.14.46-.46.46-.97,0-.18-.05-.46-.19-.88s-.28-.88-.46-1.34l-1.39-3.38h-9.2c-.92,2.27-1.43,3.7-1.62,4.16s-.28.92-.28,1.2c0,.6.23,1.02.74,1.2.28.14.83.23,1.66.32v.65h-6.98ZM362.19,248.98l-4.02-9.62-4.02,9.62h8.05Z"/>
    <path class="cls-7" d="M372.23,257.3c1.43-.14,2.36-.46,2.77-.97s.6-1.66.6-3.51v-15.4l-.46-.55c-.51-.6-.97-.97-1.29-1.11s-.88-.23-1.62-.23v-.65h5.97l13.5,16.7v-11.61c0-1.9-.28-3.14-.83-3.75-.37-.37-1.2-.6-2.5-.74v-.65h8.19v.65c-1.34.14-2.22.46-2.68.97-.46.51-.65,1.66-.65,3.51v18.41h-.6l-15.45-19.15v13.6c0,1.9.28,3.14.83,3.75.37.37,1.16.65,2.45.79v.65h-8.19v-.65l-.05-.05Z"/>
    <path class="cls-7" d="M397.71,257.35c1.43-.09,2.31-.37,2.64-.74s.51-1.34.51-2.82v-15.17c0-1.25-.19-2.08-.55-2.45s-1.25-.6-2.59-.69v-.65h9.94v.65c-1.34.05-2.27.28-2.64.69-.42.37-.6,1.2-.6,2.45v7.17c2.17-1.85,3.93-3.38,5.27-4.67,2.45-2.31,3.65-3.84,3.65-4.49,0-.46-.19-.79-.6-.92s-1.02-.23-1.76-.23v-.65h9.16v.65c-1.11.09-1.99.32-2.64.65s-1.53,1.02-2.68,2.08l-6.8,6.34,8.32,8.97c1.53,1.62,2.54,2.64,3.1,3.01.55.42,1.34.65,2.4.79v.6h-10.68v-.6c.97,0,1.62-.09,1.94-.23.32-.14.51-.37.51-.69,0-.18-.09-.51-.32-.88-.23-.42-.55-.88-1.06-1.39l-6.75-7.26-1.06,1.02v6.34c0,1.29.19,2.13.6,2.45s1.25.55,2.54.69v.6h-9.85v-.6h0Z"/>
    <path class="cls-7" d="M422.87,257.3c1.43-.09,2.36-.32,2.77-.65s.65-1.16.65-2.5v-15.54c0-1.29-.19-2.13-.65-2.5-.42-.37-1.34-.6-2.77-.65v-.65h10.36v.65c-1.43.05-2.36.28-2.77.65s-.65,1.2-.65,2.5v15.54c0,1.34.23,2.17.65,2.5s1.34.55,2.77.65v.65h-10.36v-.65Z"/>
    <path class="cls-7" d="M434.34,257.3c1.43-.14,2.36-.46,2.77-.97s.6-1.66.6-3.51v-15.4l-.46-.55c-.51-.6-.97-.97-1.29-1.11s-.88-.23-1.62-.23v-.65h5.97l13.5,16.7v-11.61c0-1.9-.28-3.14-.83-3.75-.37-.37-1.2-.6-2.5-.74v-.65h8.19v.65c-1.34.14-2.22.46-2.68.97-.46.51-.65,1.66-.65,3.51v18.41h-.6l-15.45-19.15v13.6c0,1.9.28,3.14.83,3.75.37.37,1.16.65,2.45.79v.65h-8.19v-.65l-.05-.05Z"/>
    <path class="cls-7" d="M476.1,235.01c1.29.37,2.08.55,2.27.55.51,0,.88-.09,1.06-.28.23-.18.37-.46.55-.83h.79l.28,7.35h-.79c-.74-1.71-1.43-2.96-2.22-3.79-1.39-1.43-3.14-2.17-5.36-2.17s-4.21.83-5.92,2.54-2.54,4.49-2.54,8.42c0,3.24.83,5.73,2.54,7.54s3.79,2.73,6.29,2.73c.42,0,.92,0,1.48-.14s1.11-.18,1.62-.37c.83-.28,1.34-.51,1.57-.69.19-.18.32-.51.32-.88v-5.55c0-1.34-.19-2.17-.55-2.54s-1.2-.55-2.5-.6v-.65h8.93v.65c-.88.05-1.43.18-1.71.42-.46.37-.74,1.11-.74,2.27v6.89c0,.42-1.02.97-3.01,1.62-1.99.69-3.93,1.02-5.78,1.02-3.42,0-6.29-1.02-8.65-3.01-2.59-2.17-3.88-5.13-3.88-8.83,0-3.24,1.02-6.06,3.1-8.37,2.27-2.54,5.27-3.84,9.02-3.84,1.34,0,2.68.18,3.98.55h-.14Z"/>
    <path class="cls-7" d="M319.55,299.25c1.34-.14,2.22-.42,2.54-.74.32-.37.51-1.29.51-2.77v-15.12c0-1.25-.19-2.08-.55-2.45s-1.2-.6-2.5-.69v-.65h9.67v.65c-1.29.09-2.13.32-2.5.69-.37.37-.55,1.2-.55,2.45v6.8h10.59v-6.8c0-1.25-.19-2.08-.55-2.45s-1.2-.6-2.5-.69v-.65h9.71v.65c-1.29.09-2.13.32-2.5.69-.37.37-.55,1.2-.55,2.45v15.54c0,1.25.19,2.08.55,2.45s1.2.6,2.5.69v.65h-9.71v-.65c1.39-.14,2.22-.37,2.59-.74.32-.37.51-1.29.51-2.82v-6.8h-10.59v7.21c0,1.25.19,2.08.55,2.45s1.2.6,2.5.69v.65h-9.67v-.65l-.05-.05Z"/>
    <path class="cls-7" d="M344.71,299.9v-.65c.88-.09,1.57-.46,2.03-1.02s1.2-2.13,2.31-4.72l7.26-17.16h.69l8.69,19.79c.55,1.29,1.06,2.13,1.39,2.45.37.32.92.51,1.76.65v.65h-8.88v-.65c1.02-.09,1.66-.18,1.99-.32.28-.14.46-.46.46-.97,0-.18-.05-.46-.19-.88s-.28-.88-.46-1.34l-1.39-3.38h-9.2c-.92,2.27-1.43,3.7-1.62,4.16s-.28.92-.28,1.2c0,.6.23,1.02.74,1.2.28.14.83.23,1.66.32v.65h-6.98ZM359.74,290.92l-4.02-9.62-4.02,9.62h8.05Z"/>
    <path class="cls-7" d="M369.82,299.25c1.29-.14,2.13-.37,2.5-.69.37-.32.55-1.16.55-2.45v-15.54c0-1.25-.19-2.03-.55-2.45-.37-.37-1.2-.6-2.5-.69v-.65h9.85v.65c-1.29.05-2.13.28-2.59.65s-.65,1.11-.65,2.27v16.79c0,.37.05.69.19.92.14.23.42.37.88.42.28,0,.55.05.83.05h1.62c3.1,0,5.23-.28,6.29-.79,1.11-.51,2.17-1.8,3.19-3.93h.88l-1.71,6.06h-18.78v-.65.05Z"/>
    <path class="cls-7" d="M391.19,299.25c1.29-.14,2.13-.37,2.5-.69.37-.32.55-1.16.55-2.45v-15.54c0-1.25-.19-2.03-.55-2.45-.37-.37-1.2-.6-2.5-.69v-.65h9.85v.65c-1.29.05-2.13.28-2.59.65s-.65,1.11-.65,2.27v16.79c0,.37.05.69.19.92.14.23.42.37.88.42.28,0,.55.05.83.05h1.62c3.1,0,5.23-.28,6.29-.79,1.11-.51,2.17-1.8,3.19-3.93h.88l-1.71,6.06h-18.78v-.65.05Z"/>
  </g>
  <line class="cls-6" x1="597.08" y1="408.74" x2="597.08" y2="426.31"/>
  <line class="cls-6" x1="448.17" y1="408.74" x2="448.17" y2="426.31"/>
  <polyline class="cls-6" points="448.17 426.31 454.64 428.81 461.21 431.12 467.82 433.2 474.53 435.1 481.23 436.72 488.03 438.1 494.92 439.21 501.81 440.05 508.7 440.69 515.59 441.06 522.49 441.16 529.38 441.06 536.27 440.69 543.16 440.05 550.05 439.21 556.94 438.1 563.74 436.72 570.44 435.1 577.15 433.2 583.76 431.12 590.33 428.81 596.8 426.31"/>
  <g id="Manual_Dimension4" data-name="Manual Dimension4">
    <g class="cls-15">
      <g class="cls-15">
        <g class="cls-15">
          <text class="cls-8" transform="translate(534.59 211.37)"><tspan class="cls-16" x="0" y="0">25 </tspan><tspan class="cls-12" x="20.42" y="0">FE</tspan><tspan class="cls-14" x="37.75" y="0">E</tspan><tspan class="cls-12" x="46.74" y="0">T</tspan></text>
        </g>
      </g>
    </g>
    <g>
      <line class="cls-4" x1="671.68" y1="193.76" x2="77.67" y2="193.76"/>
      <polygon class="cls-7" points="663.8 186.71 676 193.74 663.8 200.82 663.8 186.71"/>
      <polygon class="cls-7" points="79.76 186.73 67.55 193.76 79.76 200.84 79.76 186.73"/>
    </g>
  </g>
  <g id="Manual_Dimension5" data-name="Manual Dimension5">
    <g class="cls-15">
      <g class="cls-15">
        <g class="cls-15">
          <text class="cls-9" transform="translate(108.12 316.99) rotate(-90)"><tspan class="cls-16" x="0" y="0">8 </tspan><tspan class="cls-11" x="10.46" y="0">FE</tspan><tspan class="cls-13" x="24.75" y="0">E</tspan><tspan class="cls-10" x="32.17" y="0">T</tspan></text>
        </g>
      </g>
    </g>
    <g>
      <line class="cls-4" x1="115.09" y1="189.63" x2="115.09" y2="392.21"/>
      <polygon class="cls-7" points="109.29 191.32 115.09 181.25 120.94 191.32 109.29 191.32"/>
      <polygon class="cls-7" points="109.29 390.53 115.09 400.6 120.94 390.53 109.29 390.53"/>
    </g>
  </g>
</svg>